%TF.GenerationSoftware,KiCad,Pcbnew,(6.0.11-0)*%
%TF.CreationDate,2023-05-04T16:40:53+03:00*%
%TF.ProjectId,Arduino Nano Differential impdance PCB,41726475-696e-46f2-904e-616e6f204469,rev?*%
%TF.SameCoordinates,Original*%
%TF.FileFunction,Drillmap*%
%TF.FilePolarity,Positive*%
%FSLAX45Y45*%
G04 Gerber Fmt 4.5, Leading zero omitted, Abs format (unit mm)*
G04 Created by KiCad (PCBNEW (6.0.11-0)) date 2023-05-04 16:40:53*
%MOMM*%
%LPD*%
G01*
G04 APERTURE LIST*
%ADD10C,0.100000*%
%ADD11C,0.200000*%
%ADD12C,0.015000*%
%ADD13C,0.095000*%
G04 APERTURE END LIST*
D10*
X13131800Y-9334500D02*
X17449800Y-9334500D01*
X17449800Y-9334500D02*
X17449800Y-11188700D01*
X17449800Y-11188700D02*
X13131800Y-11188700D01*
X13131800Y-11188700D02*
X13131800Y-9334500D01*
D11*
D12*
X13365600Y-9631800D02*
X13380600Y-9646800D01*
X13380600Y-9631800D02*
X13365600Y-9646800D01*
X13365600Y-10622400D02*
X13380600Y-10637400D01*
X13380600Y-10622400D02*
X13365600Y-10637400D01*
X13496643Y-10134180D02*
X13511643Y-10149180D01*
X13511643Y-10134180D02*
X13496643Y-10149180D01*
X13556100Y-9911200D02*
X13571100Y-9926200D01*
X13571100Y-9911200D02*
X13556100Y-9926200D01*
X13631820Y-10177900D02*
X13646820Y-10192900D01*
X13646820Y-10177900D02*
X13631820Y-10192900D01*
X13645000Y-10406500D02*
X13660000Y-10421500D01*
X13660000Y-10406500D02*
X13645000Y-10421500D01*
X13746600Y-10482700D02*
X13761600Y-10497700D01*
X13761600Y-10482700D02*
X13746600Y-10497700D01*
X13784700Y-10622400D02*
X13799700Y-10637400D01*
X13799700Y-10622400D02*
X13784700Y-10637400D01*
X13791081Y-9898500D02*
X13806081Y-9913500D01*
X13806081Y-9898500D02*
X13791081Y-9913500D01*
X14051400Y-10179100D02*
X14066400Y-10194100D01*
X14066400Y-10179100D02*
X14051400Y-10194100D01*
X14051400Y-10249100D02*
X14066400Y-10264100D01*
X14066400Y-10249100D02*
X14051400Y-10264100D01*
X14051400Y-10343000D02*
X14066400Y-10358000D01*
X14066400Y-10343000D02*
X14051400Y-10358000D01*
X14076800Y-10089000D02*
X14091800Y-10104000D01*
X14091800Y-10089000D02*
X14076800Y-10104000D01*
X14076800Y-10431900D02*
X14091800Y-10446900D01*
X14091800Y-10431900D02*
X14076800Y-10446900D01*
X14139493Y-10743777D02*
X14154493Y-10758777D01*
X14154493Y-10743777D02*
X14139493Y-10758777D01*
X14140300Y-10025500D02*
X14155300Y-10040500D01*
X14155300Y-10025500D02*
X14140300Y-10040500D01*
X14153000Y-10812900D02*
X14168000Y-10827900D01*
X14168000Y-10812900D02*
X14153000Y-10827900D01*
X14159318Y-9733400D02*
X14174318Y-9748400D01*
X14174318Y-9733400D02*
X14159318Y-9748400D01*
X14222850Y-10222350D02*
X14237850Y-10237350D01*
X14237850Y-10222350D02*
X14222850Y-10237350D01*
X14269962Y-10350240D02*
X14284962Y-10365240D01*
X14284962Y-10350240D02*
X14269962Y-10365240D01*
X14280692Y-10169334D02*
X14295692Y-10184334D01*
X14295692Y-10169334D02*
X14280692Y-10184334D01*
X14287755Y-10746511D02*
X14302755Y-10761511D01*
X14302755Y-10746511D02*
X14287755Y-10761511D01*
X14296282Y-9713390D02*
X14311282Y-9728390D01*
X14311282Y-9713390D02*
X14296282Y-9728390D01*
X14302650Y-10812900D02*
X14317650Y-10827900D01*
X14317650Y-10812900D02*
X14302650Y-10827900D01*
X14419700Y-9746100D02*
X14434700Y-9761100D01*
X14434700Y-9746100D02*
X14419700Y-9761100D01*
X14437102Y-10093702D02*
X14452102Y-10108702D01*
X14452102Y-10093702D02*
X14437102Y-10108702D01*
X14447389Y-10366111D02*
X14462389Y-10381111D01*
X14462389Y-10366111D02*
X14447389Y-10381111D01*
X14518015Y-10093566D02*
X14533015Y-10108566D01*
X14533015Y-10093566D02*
X14518015Y-10108566D01*
X14530726Y-10427045D02*
X14545726Y-10442045D01*
X14545726Y-10427045D02*
X14530726Y-10442045D01*
X14556800Y-10878001D02*
X14571800Y-10893001D01*
X14571800Y-10878001D02*
X14556800Y-10893001D01*
X14648300Y-9758800D02*
X14663300Y-9773800D01*
X14663300Y-9758800D02*
X14648300Y-9773800D01*
X14649869Y-10750573D02*
X14664869Y-10765573D01*
X14664869Y-10750573D02*
X14649869Y-10765573D01*
X14678918Y-10427045D02*
X14693918Y-10442045D01*
X14693918Y-10427045D02*
X14678918Y-10442045D01*
X14775300Y-10152500D02*
X14790300Y-10167500D01*
X14790300Y-10152500D02*
X14775300Y-10167500D01*
X14775300Y-10427045D02*
X14790300Y-10442045D01*
X14790300Y-10427045D02*
X14775300Y-10442045D01*
X14816800Y-10876102D02*
X14831800Y-10891102D01*
X14831800Y-10876102D02*
X14816800Y-10891102D01*
X14825956Y-10108019D02*
X14840956Y-10123019D01*
X14840956Y-10108019D02*
X14825956Y-10123019D01*
X14840819Y-10294759D02*
X14855819Y-10309759D01*
X14855819Y-10294759D02*
X14840819Y-10309759D01*
X14889600Y-10761815D02*
X14904600Y-10776815D01*
X14904600Y-10761815D02*
X14889600Y-10776815D01*
X14902300Y-10050900D02*
X14917300Y-10065900D01*
X14917300Y-10050900D02*
X14902300Y-10065900D01*
X14935688Y-10716051D02*
X14950688Y-10731051D01*
X14950688Y-10716051D02*
X14935688Y-10731051D01*
X14961526Y-10399146D02*
X14976526Y-10414146D01*
X14976526Y-10399146D02*
X14961526Y-10414146D01*
X15015642Y-10751879D02*
X15030642Y-10766879D01*
X15030642Y-10751879D02*
X15015642Y-10766879D01*
X15016600Y-10343000D02*
X15031600Y-10358000D01*
X15031600Y-10343000D02*
X15016600Y-10358000D01*
X15067400Y-9904819D02*
X15082400Y-9919819D01*
X15082400Y-9904819D02*
X15067400Y-9919819D01*
X15166250Y-10774800D02*
X15181250Y-10789800D01*
X15181250Y-10774800D02*
X15166250Y-10789800D01*
X15181700Y-10635100D02*
X15196700Y-10650100D01*
X15196700Y-10635100D02*
X15181700Y-10650100D01*
X15270600Y-10408799D02*
X15285600Y-10423799D01*
X15285600Y-10408799D02*
X15270600Y-10423799D01*
X15321400Y-10590619D02*
X15336400Y-10605619D01*
X15336400Y-10590619D02*
X15321400Y-10605619D01*
X15321400Y-10818984D02*
X15336400Y-10833984D01*
X15336400Y-10818984D02*
X15321400Y-10833984D01*
X15339456Y-9908399D02*
X15354456Y-9923399D01*
X15354456Y-9908399D02*
X15339456Y-9923399D01*
X15510000Y-10700500D02*
X15525000Y-10715500D01*
X15525000Y-10700500D02*
X15510000Y-10715500D01*
X15511900Y-10541282D02*
X15526900Y-10556282D01*
X15526900Y-10541282D02*
X15511900Y-10556282D01*
X15524600Y-10412882D02*
X15539600Y-10427882D01*
X15539600Y-10412882D02*
X15524600Y-10427882D01*
X15603622Y-10377905D02*
X15618622Y-10392905D01*
X15618622Y-10377905D02*
X15603622Y-10392905D01*
X15606130Y-10246910D02*
X15621130Y-10261910D01*
X15621130Y-10246910D02*
X15606130Y-10261910D01*
X15651600Y-9733400D02*
X15666600Y-9748400D01*
X15666600Y-9733400D02*
X15651600Y-9748400D01*
X15651600Y-9798350D02*
X15666600Y-9813350D01*
X15666600Y-9798350D02*
X15651600Y-9813350D01*
X15657981Y-10604786D02*
X15672981Y-10619786D01*
X15672981Y-10604786D02*
X15657981Y-10619786D01*
X15740500Y-10101700D02*
X15755500Y-10116700D01*
X15755500Y-10101700D02*
X15740500Y-10116700D01*
X15788398Y-10590619D02*
X15803398Y-10605619D01*
X15803398Y-10590619D02*
X15788398Y-10605619D01*
X15791300Y-10330300D02*
X15806300Y-10345300D01*
X15806300Y-10330300D02*
X15791300Y-10345300D01*
X15849000Y-10215415D02*
X15864000Y-10230415D01*
X15864000Y-10215415D02*
X15849000Y-10230415D01*
X15877450Y-10774800D02*
X15892450Y-10789800D01*
X15892450Y-10774800D02*
X15877450Y-10789800D01*
X15884180Y-10329702D02*
X15899180Y-10344702D01*
X15899180Y-10329702D02*
X15884180Y-10344702D01*
X15943700Y-10355700D02*
X15958700Y-10370700D01*
X15958700Y-10355700D02*
X15943700Y-10370700D01*
X15994500Y-10130770D02*
X16009500Y-10145770D01*
X16009500Y-10130770D02*
X15994500Y-10145770D01*
X15996050Y-9639170D02*
X16011050Y-9654170D01*
X16011050Y-9639170D02*
X15996050Y-9654170D01*
X16018804Y-10628550D02*
X16033804Y-10643550D01*
X16033804Y-10628550D02*
X16018804Y-10643550D01*
X16019900Y-10711300D02*
X16034900Y-10726300D01*
X16034900Y-10711300D02*
X16019900Y-10726300D01*
X16069863Y-10260085D02*
X16084863Y-10275085D01*
X16084863Y-10260085D02*
X16069863Y-10275085D01*
X16096100Y-10089000D02*
X16111100Y-10104000D01*
X16111100Y-10089000D02*
X16096100Y-10104000D01*
X16163950Y-9904819D02*
X16178950Y-9919819D01*
X16178950Y-9904819D02*
X16163950Y-9919819D01*
X16170813Y-10239913D02*
X16185813Y-10254913D01*
X16185813Y-10239913D02*
X16170813Y-10254913D01*
X16212955Y-10305432D02*
X16227955Y-10320432D01*
X16227955Y-10305432D02*
X16212955Y-10320432D01*
X16216781Y-10089000D02*
X16231781Y-10104000D01*
X16231781Y-10089000D02*
X16216781Y-10104000D01*
X16264057Y-9904819D02*
X16279057Y-9919819D01*
X16279057Y-9904819D02*
X16264057Y-9919819D01*
X16330268Y-10424768D02*
X16345268Y-10439768D01*
X16345268Y-10424768D02*
X16330268Y-10439768D01*
X16331018Y-10127100D02*
X16346018Y-10142100D01*
X16346018Y-10127100D02*
X16331018Y-10142100D01*
X16629500Y-10266800D02*
X16644500Y-10281800D01*
X16644500Y-10266800D02*
X16629500Y-10281800D01*
X16794600Y-9987400D02*
X16809600Y-10002400D01*
X16809600Y-9987400D02*
X16794600Y-10002400D01*
D13*
X13609270Y-10041600D02*
G75*
G03*
X13609270Y-10041600I-47500J0D01*
G01*
X13609270Y-10481600D02*
G75*
G03*
X13609270Y-10481600I-47500J0D01*
G01*
D10*
X13512300Y-9449600D02*
X13512300Y-9549600D01*
X13462300Y-9499600D02*
X13562300Y-9499600D01*
X13513300Y-10973600D02*
X13513300Y-11073600D01*
X13463300Y-11023600D02*
X13563300Y-11023600D01*
X13766300Y-9449600D02*
X13766300Y-9549600D01*
X13716300Y-9499600D02*
X13816300Y-9499600D01*
X13767300Y-10973600D02*
X13767300Y-11073600D01*
X13717300Y-11023600D02*
X13817300Y-11023600D01*
X14020300Y-9449600D02*
X14020300Y-9549600D01*
X13970300Y-9499600D02*
X14070300Y-9499600D01*
X14021300Y-10973600D02*
X14021300Y-11073600D01*
X13971300Y-11023600D02*
X14071300Y-11023600D01*
X14274300Y-9449600D02*
X14274300Y-9549600D01*
X14224300Y-9499600D02*
X14324300Y-9499600D01*
X14275300Y-10973600D02*
X14275300Y-11073600D01*
X14225300Y-11023600D02*
X14325300Y-11023600D01*
X14528300Y-9449600D02*
X14528300Y-9549600D01*
X14478300Y-9499600D02*
X14578300Y-9499600D01*
X14529300Y-10973600D02*
X14529300Y-11073600D01*
X14479300Y-11023600D02*
X14579300Y-11023600D01*
X14782300Y-9449600D02*
X14782300Y-9549600D01*
X14732300Y-9499600D02*
X14832300Y-9499600D01*
X14783300Y-10973600D02*
X14783300Y-11073600D01*
X14733300Y-11023600D02*
X14833300Y-11023600D01*
X15036300Y-9449600D02*
X15036300Y-9549600D01*
X14986300Y-9499600D02*
X15086300Y-9499600D01*
X15037300Y-10973600D02*
X15037300Y-11073600D01*
X14987300Y-11023600D02*
X15087300Y-11023600D01*
X15290300Y-9449600D02*
X15290300Y-9549600D01*
X15240300Y-9499600D02*
X15340300Y-9499600D01*
X15291300Y-10973600D02*
X15291300Y-11073600D01*
X15241300Y-11023600D02*
X15341300Y-11023600D01*
X15544300Y-9449600D02*
X15544300Y-9549600D01*
X15494300Y-9499600D02*
X15594300Y-9499600D01*
X15545300Y-10973600D02*
X15545300Y-11073600D01*
X15495300Y-11023600D02*
X15595300Y-11023600D01*
X15798300Y-9449600D02*
X15798300Y-9549600D01*
X15748300Y-9499600D02*
X15848300Y-9499600D01*
X15799300Y-10973600D02*
X15799300Y-11073600D01*
X15749300Y-11023600D02*
X15849300Y-11023600D01*
X16052300Y-9449600D02*
X16052300Y-9549600D01*
X16002300Y-9499600D02*
X16102300Y-9499600D01*
X16053300Y-10973600D02*
X16053300Y-11073600D01*
X16003300Y-11023600D02*
X16103300Y-11023600D01*
X16306300Y-9449600D02*
X16306300Y-9549600D01*
X16256300Y-9499600D02*
X16356300Y-9499600D01*
X16307300Y-10973600D02*
X16307300Y-11073600D01*
X16257300Y-11023600D02*
X16357300Y-11023600D01*
X16560300Y-9449600D02*
X16560300Y-9549600D01*
X16510300Y-9499600D02*
X16610300Y-9499600D01*
X16561300Y-10973600D02*
X16561300Y-11073600D01*
X16511300Y-11023600D02*
X16611300Y-11023600D01*
X16814300Y-9449600D02*
X16814300Y-9549600D01*
X16764300Y-9499600D02*
X16864300Y-9499600D01*
X16815300Y-10973600D02*
X16815300Y-11073600D01*
X16765300Y-11023600D02*
X16865300Y-11023600D01*
X17068300Y-9449600D02*
X17068300Y-9549600D01*
X17018300Y-9499600D02*
X17118300Y-9499600D01*
X17068300Y-9959100D02*
X17068300Y-10059100D01*
X17018300Y-10009100D02*
X17118300Y-10009100D01*
X17068300Y-10213100D02*
X17068300Y-10313100D01*
X17018300Y-10263100D02*
X17118300Y-10263100D01*
X17068300Y-10467100D02*
X17068300Y-10567100D01*
X17018300Y-10517100D02*
X17118300Y-10517100D01*
X17069300Y-10973600D02*
X17069300Y-11073600D01*
X17019300Y-11023600D02*
X17119300Y-11023600D01*
X17322300Y-9959100D02*
X17322300Y-10059100D01*
X17272300Y-10009100D02*
X17372300Y-10009100D01*
X17322300Y-10213100D02*
X17322300Y-10313100D01*
X17272300Y-10263100D02*
X17372300Y-10263100D01*
X17322300Y-10467100D02*
X17322300Y-10567100D01*
X17272300Y-10517100D02*
X17372300Y-10517100D01*
D11*
X13384419Y-11504176D02*
X13384419Y-11304176D01*
X13432038Y-11304176D01*
X13460609Y-11313700D01*
X13479657Y-11332748D01*
X13489181Y-11351795D01*
X13498705Y-11389890D01*
X13498705Y-11418462D01*
X13489181Y-11456557D01*
X13479657Y-11475605D01*
X13460609Y-11494652D01*
X13432038Y-11504176D01*
X13384419Y-11504176D01*
X13584419Y-11504176D02*
X13584419Y-11370843D01*
X13584419Y-11408938D02*
X13593943Y-11389890D01*
X13603467Y-11380367D01*
X13622514Y-11370843D01*
X13641562Y-11370843D01*
X13708228Y-11504176D02*
X13708228Y-11370843D01*
X13708228Y-11304176D02*
X13698705Y-11313700D01*
X13708228Y-11323224D01*
X13717752Y-11313700D01*
X13708228Y-11304176D01*
X13708228Y-11323224D01*
X13832038Y-11504176D02*
X13812990Y-11494652D01*
X13803467Y-11475605D01*
X13803467Y-11304176D01*
X13936800Y-11504176D02*
X13917752Y-11494652D01*
X13908228Y-11475605D01*
X13908228Y-11304176D01*
X14165371Y-11504176D02*
X14165371Y-11304176D01*
X14232038Y-11447033D01*
X14298705Y-11304176D01*
X14298705Y-11504176D01*
X14479657Y-11504176D02*
X14479657Y-11399414D01*
X14470133Y-11380367D01*
X14451086Y-11370843D01*
X14412990Y-11370843D01*
X14393943Y-11380367D01*
X14479657Y-11494652D02*
X14460609Y-11504176D01*
X14412990Y-11504176D01*
X14393943Y-11494652D01*
X14384419Y-11475605D01*
X14384419Y-11456557D01*
X14393943Y-11437509D01*
X14412990Y-11427986D01*
X14460609Y-11427986D01*
X14479657Y-11418462D01*
X14574895Y-11370843D02*
X14574895Y-11570843D01*
X14574895Y-11380367D02*
X14593943Y-11370843D01*
X14632038Y-11370843D01*
X14651086Y-11380367D01*
X14660609Y-11389890D01*
X14670133Y-11408938D01*
X14670133Y-11466081D01*
X14660609Y-11485128D01*
X14651086Y-11494652D01*
X14632038Y-11504176D01*
X14593943Y-11504176D01*
X14574895Y-11494652D01*
X14755848Y-11485128D02*
X14765371Y-11494652D01*
X14755848Y-11504176D01*
X14746324Y-11494652D01*
X14755848Y-11485128D01*
X14755848Y-11504176D01*
X14755848Y-11380367D02*
X14765371Y-11389890D01*
X14755848Y-11399414D01*
X14746324Y-11389890D01*
X14755848Y-11380367D01*
X14755848Y-11399414D01*
D12*
X13111800Y-11826200D02*
X13126800Y-11841200D01*
X13126800Y-11826200D02*
X13111800Y-11841200D01*
D11*
X13422514Y-11724176D02*
X13441562Y-11724176D01*
X13460609Y-11733700D01*
X13470133Y-11743224D01*
X13479657Y-11762271D01*
X13489181Y-11800367D01*
X13489181Y-11847986D01*
X13479657Y-11886081D01*
X13470133Y-11905128D01*
X13460609Y-11914652D01*
X13441562Y-11924176D01*
X13422514Y-11924176D01*
X13403467Y-11914652D01*
X13393943Y-11905128D01*
X13384419Y-11886081D01*
X13374895Y-11847986D01*
X13374895Y-11800367D01*
X13384419Y-11762271D01*
X13393943Y-11743224D01*
X13403467Y-11733700D01*
X13422514Y-11724176D01*
X13574895Y-11905128D02*
X13584419Y-11914652D01*
X13574895Y-11924176D01*
X13565371Y-11914652D01*
X13574895Y-11905128D01*
X13574895Y-11924176D01*
X13774895Y-11924176D02*
X13660609Y-11924176D01*
X13717752Y-11924176D02*
X13717752Y-11724176D01*
X13698705Y-11752748D01*
X13679657Y-11771795D01*
X13660609Y-11781319D01*
X13955848Y-11724176D02*
X13860609Y-11724176D01*
X13851086Y-11819414D01*
X13860609Y-11809890D01*
X13879657Y-11800367D01*
X13927276Y-11800367D01*
X13946324Y-11809890D01*
X13955848Y-11819414D01*
X13965371Y-11838462D01*
X13965371Y-11886081D01*
X13955848Y-11905128D01*
X13946324Y-11914652D01*
X13927276Y-11924176D01*
X13879657Y-11924176D01*
X13860609Y-11914652D01*
X13851086Y-11905128D01*
X14089181Y-11724176D02*
X14108228Y-11724176D01*
X14127276Y-11733700D01*
X14136800Y-11743224D01*
X14146324Y-11762271D01*
X14155848Y-11800367D01*
X14155848Y-11847986D01*
X14146324Y-11886081D01*
X14136800Y-11905128D01*
X14127276Y-11914652D01*
X14108228Y-11924176D01*
X14089181Y-11924176D01*
X14070133Y-11914652D01*
X14060609Y-11905128D01*
X14051086Y-11886081D01*
X14041562Y-11847986D01*
X14041562Y-11800367D01*
X14051086Y-11762271D01*
X14060609Y-11743224D01*
X14070133Y-11733700D01*
X14089181Y-11724176D01*
X14241562Y-11924176D02*
X14241562Y-11790843D01*
X14241562Y-11809890D02*
X14251086Y-11800367D01*
X14270133Y-11790843D01*
X14298705Y-11790843D01*
X14317752Y-11800367D01*
X14327276Y-11819414D01*
X14327276Y-11924176D01*
X14327276Y-11819414D02*
X14336800Y-11800367D01*
X14355848Y-11790843D01*
X14384419Y-11790843D01*
X14403467Y-11800367D01*
X14412990Y-11819414D01*
X14412990Y-11924176D01*
X14508228Y-11924176D02*
X14508228Y-11790843D01*
X14508228Y-11809890D02*
X14517752Y-11800367D01*
X14536800Y-11790843D01*
X14565371Y-11790843D01*
X14584419Y-11800367D01*
X14593943Y-11819414D01*
X14593943Y-11924176D01*
X14593943Y-11819414D02*
X14603467Y-11800367D01*
X14622514Y-11790843D01*
X14651086Y-11790843D01*
X14670133Y-11800367D01*
X14679657Y-11819414D01*
X14679657Y-11924176D01*
X15070133Y-11714652D02*
X14898705Y-11971795D01*
X15327276Y-11724176D02*
X15346324Y-11724176D01*
X15365371Y-11733700D01*
X15374895Y-11743224D01*
X15384419Y-11762271D01*
X15393943Y-11800367D01*
X15393943Y-11847986D01*
X15384419Y-11886081D01*
X15374895Y-11905128D01*
X15365371Y-11914652D01*
X15346324Y-11924176D01*
X15327276Y-11924176D01*
X15308228Y-11914652D01*
X15298705Y-11905128D01*
X15289181Y-11886081D01*
X15279657Y-11847986D01*
X15279657Y-11800367D01*
X15289181Y-11762271D01*
X15298705Y-11743224D01*
X15308228Y-11733700D01*
X15327276Y-11724176D01*
X15479657Y-11905128D02*
X15489181Y-11914652D01*
X15479657Y-11924176D01*
X15470133Y-11914652D01*
X15479657Y-11905128D01*
X15479657Y-11924176D01*
X15612990Y-11724176D02*
X15632038Y-11724176D01*
X15651086Y-11733700D01*
X15660609Y-11743224D01*
X15670133Y-11762271D01*
X15679657Y-11800367D01*
X15679657Y-11847986D01*
X15670133Y-11886081D01*
X15660609Y-11905128D01*
X15651086Y-11914652D01*
X15632038Y-11924176D01*
X15612990Y-11924176D01*
X15593943Y-11914652D01*
X15584419Y-11905128D01*
X15574895Y-11886081D01*
X15565371Y-11847986D01*
X15565371Y-11800367D01*
X15574895Y-11762271D01*
X15584419Y-11743224D01*
X15593943Y-11733700D01*
X15612990Y-11724176D01*
X15803467Y-11724176D02*
X15822514Y-11724176D01*
X15841562Y-11733700D01*
X15851086Y-11743224D01*
X15860609Y-11762271D01*
X15870133Y-11800367D01*
X15870133Y-11847986D01*
X15860609Y-11886081D01*
X15851086Y-11905128D01*
X15841562Y-11914652D01*
X15822514Y-11924176D01*
X15803467Y-11924176D01*
X15784419Y-11914652D01*
X15774895Y-11905128D01*
X15765371Y-11886081D01*
X15755848Y-11847986D01*
X15755848Y-11800367D01*
X15765371Y-11762271D01*
X15774895Y-11743224D01*
X15784419Y-11733700D01*
X15803467Y-11724176D01*
X16051086Y-11724176D02*
X15955848Y-11724176D01*
X15946324Y-11819414D01*
X15955848Y-11809890D01*
X15974895Y-11800367D01*
X16022514Y-11800367D01*
X16041562Y-11809890D01*
X16051086Y-11819414D01*
X16060609Y-11838462D01*
X16060609Y-11886081D01*
X16051086Y-11905128D01*
X16041562Y-11914652D01*
X16022514Y-11924176D01*
X15974895Y-11924176D01*
X15955848Y-11914652D01*
X15946324Y-11905128D01*
X16155848Y-11924176D02*
X16193943Y-11924176D01*
X16212990Y-11914652D01*
X16222514Y-11905128D01*
X16241562Y-11876557D01*
X16251086Y-11838462D01*
X16251086Y-11762271D01*
X16241562Y-11743224D01*
X16232038Y-11733700D01*
X16212990Y-11724176D01*
X16174895Y-11724176D01*
X16155848Y-11733700D01*
X16146324Y-11743224D01*
X16136800Y-11762271D01*
X16136800Y-11809890D01*
X16146324Y-11828938D01*
X16155848Y-11838462D01*
X16174895Y-11847986D01*
X16212990Y-11847986D01*
X16232038Y-11838462D01*
X16241562Y-11828938D01*
X16251086Y-11809890D01*
X16327276Y-11724176D02*
X16327276Y-11762271D01*
X16403467Y-11724176D02*
X16403467Y-11762271D01*
X16698705Y-12000367D02*
X16689181Y-11990843D01*
X16670133Y-11962271D01*
X16660609Y-11943224D01*
X16651086Y-11914652D01*
X16641562Y-11867033D01*
X16641562Y-11828938D01*
X16651086Y-11781319D01*
X16660609Y-11752748D01*
X16670133Y-11733700D01*
X16689181Y-11705128D01*
X16698705Y-11695605D01*
X16803467Y-11809890D02*
X16784419Y-11800367D01*
X16774895Y-11790843D01*
X16765371Y-11771795D01*
X16765371Y-11762271D01*
X16774895Y-11743224D01*
X16784419Y-11733700D01*
X16803467Y-11724176D01*
X16841562Y-11724176D01*
X16860610Y-11733700D01*
X16870133Y-11743224D01*
X16879657Y-11762271D01*
X16879657Y-11771795D01*
X16870133Y-11790843D01*
X16860610Y-11800367D01*
X16841562Y-11809890D01*
X16803467Y-11809890D01*
X16784419Y-11819414D01*
X16774895Y-11828938D01*
X16765371Y-11847986D01*
X16765371Y-11886081D01*
X16774895Y-11905128D01*
X16784419Y-11914652D01*
X16803467Y-11924176D01*
X16841562Y-11924176D01*
X16860610Y-11914652D01*
X16870133Y-11905128D01*
X16879657Y-11886081D01*
X16879657Y-11847986D01*
X16870133Y-11828938D01*
X16860610Y-11819414D01*
X16841562Y-11809890D01*
X17070133Y-11924176D02*
X16955848Y-11924176D01*
X17012990Y-11924176D02*
X17012990Y-11724176D01*
X16993943Y-11752748D01*
X16974895Y-11771795D01*
X16955848Y-11781319D01*
X17308229Y-11924176D02*
X17308229Y-11724176D01*
X17393943Y-11924176D02*
X17393943Y-11819414D01*
X17384419Y-11800367D01*
X17365371Y-11790843D01*
X17336800Y-11790843D01*
X17317752Y-11800367D01*
X17308229Y-11809890D01*
X17517752Y-11924176D02*
X17498705Y-11914652D01*
X17489181Y-11905128D01*
X17479657Y-11886081D01*
X17479657Y-11828938D01*
X17489181Y-11809890D01*
X17498705Y-11800367D01*
X17517752Y-11790843D01*
X17546324Y-11790843D01*
X17565371Y-11800367D01*
X17574895Y-11809890D01*
X17584419Y-11828938D01*
X17584419Y-11886081D01*
X17574895Y-11905128D01*
X17565371Y-11914652D01*
X17546324Y-11924176D01*
X17517752Y-11924176D01*
X17698705Y-11924176D02*
X17679657Y-11914652D01*
X17670133Y-11895605D01*
X17670133Y-11724176D01*
X17851086Y-11914652D02*
X17832038Y-11924176D01*
X17793943Y-11924176D01*
X17774895Y-11914652D01*
X17765371Y-11895605D01*
X17765371Y-11819414D01*
X17774895Y-11800367D01*
X17793943Y-11790843D01*
X17832038Y-11790843D01*
X17851086Y-11800367D01*
X17860610Y-11819414D01*
X17860610Y-11838462D01*
X17765371Y-11857509D01*
X17936800Y-11914652D02*
X17955848Y-11924176D01*
X17993943Y-11924176D01*
X18012990Y-11914652D01*
X18022514Y-11895605D01*
X18022514Y-11886081D01*
X18012990Y-11867033D01*
X17993943Y-11857509D01*
X17965371Y-11857509D01*
X17946324Y-11847986D01*
X17936800Y-11828938D01*
X17936800Y-11819414D01*
X17946324Y-11800367D01*
X17965371Y-11790843D01*
X17993943Y-11790843D01*
X18012990Y-11800367D01*
X18089181Y-12000367D02*
X18098705Y-11990843D01*
X18117752Y-11962271D01*
X18127276Y-11943224D01*
X18136800Y-11914652D01*
X18146324Y-11867033D01*
X18146324Y-11828938D01*
X18136800Y-11781319D01*
X18127276Y-11752748D01*
X18117752Y-11733700D01*
X18098705Y-11705128D01*
X18089181Y-11695605D01*
D13*
X13126800Y-12097700D02*
G75*
G03*
X13126800Y-12097700I-47500J0D01*
G01*
D11*
X13422514Y-11988176D02*
X13441562Y-11988176D01*
X13460609Y-11997700D01*
X13470133Y-12007224D01*
X13479657Y-12026271D01*
X13489181Y-12064367D01*
X13489181Y-12111986D01*
X13479657Y-12150081D01*
X13470133Y-12169128D01*
X13460609Y-12178652D01*
X13441562Y-12188176D01*
X13422514Y-12188176D01*
X13403467Y-12178652D01*
X13393943Y-12169128D01*
X13384419Y-12150081D01*
X13374895Y-12111986D01*
X13374895Y-12064367D01*
X13384419Y-12026271D01*
X13393943Y-12007224D01*
X13403467Y-11997700D01*
X13422514Y-11988176D01*
X13574895Y-12169128D02*
X13584419Y-12178652D01*
X13574895Y-12188176D01*
X13565371Y-12178652D01*
X13574895Y-12169128D01*
X13574895Y-12188176D01*
X13679657Y-12188176D02*
X13717752Y-12188176D01*
X13736800Y-12178652D01*
X13746324Y-12169128D01*
X13765371Y-12140557D01*
X13774895Y-12102462D01*
X13774895Y-12026271D01*
X13765371Y-12007224D01*
X13755848Y-11997700D01*
X13736800Y-11988176D01*
X13698705Y-11988176D01*
X13679657Y-11997700D01*
X13670133Y-12007224D01*
X13660609Y-12026271D01*
X13660609Y-12073890D01*
X13670133Y-12092938D01*
X13679657Y-12102462D01*
X13698705Y-12111986D01*
X13736800Y-12111986D01*
X13755848Y-12102462D01*
X13765371Y-12092938D01*
X13774895Y-12073890D01*
X13955848Y-11988176D02*
X13860609Y-11988176D01*
X13851086Y-12083414D01*
X13860609Y-12073890D01*
X13879657Y-12064367D01*
X13927276Y-12064367D01*
X13946324Y-12073890D01*
X13955848Y-12083414D01*
X13965371Y-12102462D01*
X13965371Y-12150081D01*
X13955848Y-12169128D01*
X13946324Y-12178652D01*
X13927276Y-12188176D01*
X13879657Y-12188176D01*
X13860609Y-12178652D01*
X13851086Y-12169128D01*
X14089181Y-11988176D02*
X14108228Y-11988176D01*
X14127276Y-11997700D01*
X14136800Y-12007224D01*
X14146324Y-12026271D01*
X14155848Y-12064367D01*
X14155848Y-12111986D01*
X14146324Y-12150081D01*
X14136800Y-12169128D01*
X14127276Y-12178652D01*
X14108228Y-12188176D01*
X14089181Y-12188176D01*
X14070133Y-12178652D01*
X14060609Y-12169128D01*
X14051086Y-12150081D01*
X14041562Y-12111986D01*
X14041562Y-12064367D01*
X14051086Y-12026271D01*
X14060609Y-12007224D01*
X14070133Y-11997700D01*
X14089181Y-11988176D01*
X14241562Y-12188176D02*
X14241562Y-12054843D01*
X14241562Y-12073890D02*
X14251086Y-12064367D01*
X14270133Y-12054843D01*
X14298705Y-12054843D01*
X14317752Y-12064367D01*
X14327276Y-12083414D01*
X14327276Y-12188176D01*
X14327276Y-12083414D02*
X14336800Y-12064367D01*
X14355848Y-12054843D01*
X14384419Y-12054843D01*
X14403467Y-12064367D01*
X14412990Y-12083414D01*
X14412990Y-12188176D01*
X14508228Y-12188176D02*
X14508228Y-12054843D01*
X14508228Y-12073890D02*
X14517752Y-12064367D01*
X14536800Y-12054843D01*
X14565371Y-12054843D01*
X14584419Y-12064367D01*
X14593943Y-12083414D01*
X14593943Y-12188176D01*
X14593943Y-12083414D02*
X14603467Y-12064367D01*
X14622514Y-12054843D01*
X14651086Y-12054843D01*
X14670133Y-12064367D01*
X14679657Y-12083414D01*
X14679657Y-12188176D01*
X15070133Y-11978652D02*
X14898705Y-12235795D01*
X15327276Y-11988176D02*
X15346324Y-11988176D01*
X15365371Y-11997700D01*
X15374895Y-12007224D01*
X15384419Y-12026271D01*
X15393943Y-12064367D01*
X15393943Y-12111986D01*
X15384419Y-12150081D01*
X15374895Y-12169128D01*
X15365371Y-12178652D01*
X15346324Y-12188176D01*
X15327276Y-12188176D01*
X15308228Y-12178652D01*
X15298705Y-12169128D01*
X15289181Y-12150081D01*
X15279657Y-12111986D01*
X15279657Y-12064367D01*
X15289181Y-12026271D01*
X15298705Y-12007224D01*
X15308228Y-11997700D01*
X15327276Y-11988176D01*
X15479657Y-12169128D02*
X15489181Y-12178652D01*
X15479657Y-12188176D01*
X15470133Y-12178652D01*
X15479657Y-12169128D01*
X15479657Y-12188176D01*
X15612990Y-11988176D02*
X15632038Y-11988176D01*
X15651086Y-11997700D01*
X15660609Y-12007224D01*
X15670133Y-12026271D01*
X15679657Y-12064367D01*
X15679657Y-12111986D01*
X15670133Y-12150081D01*
X15660609Y-12169128D01*
X15651086Y-12178652D01*
X15632038Y-12188176D01*
X15612990Y-12188176D01*
X15593943Y-12178652D01*
X15584419Y-12169128D01*
X15574895Y-12150081D01*
X15565371Y-12111986D01*
X15565371Y-12064367D01*
X15574895Y-12026271D01*
X15584419Y-12007224D01*
X15593943Y-11997700D01*
X15612990Y-11988176D01*
X15746324Y-11988176D02*
X15870133Y-11988176D01*
X15803467Y-12064367D01*
X15832038Y-12064367D01*
X15851086Y-12073890D01*
X15860609Y-12083414D01*
X15870133Y-12102462D01*
X15870133Y-12150081D01*
X15860609Y-12169128D01*
X15851086Y-12178652D01*
X15832038Y-12188176D01*
X15774895Y-12188176D01*
X15755848Y-12178652D01*
X15746324Y-12169128D01*
X15936800Y-11988176D02*
X16070133Y-11988176D01*
X15984419Y-12188176D01*
X16232038Y-12054843D02*
X16232038Y-12188176D01*
X16184419Y-11978652D02*
X16136800Y-12121509D01*
X16260609Y-12121509D01*
X16327276Y-11988176D02*
X16327276Y-12026271D01*
X16403467Y-11988176D02*
X16403467Y-12026271D01*
X16698705Y-12264367D02*
X16689181Y-12254843D01*
X16670133Y-12226271D01*
X16660609Y-12207224D01*
X16651086Y-12178652D01*
X16641562Y-12131033D01*
X16641562Y-12092938D01*
X16651086Y-12045319D01*
X16660609Y-12016748D01*
X16670133Y-11997700D01*
X16689181Y-11969128D01*
X16698705Y-11959605D01*
X16765371Y-12007224D02*
X16774895Y-11997700D01*
X16793943Y-11988176D01*
X16841562Y-11988176D01*
X16860610Y-11997700D01*
X16870133Y-12007224D01*
X16879657Y-12026271D01*
X16879657Y-12045319D01*
X16870133Y-12073890D01*
X16755848Y-12188176D01*
X16879657Y-12188176D01*
X17117752Y-12188176D02*
X17117752Y-11988176D01*
X17203467Y-12188176D02*
X17203467Y-12083414D01*
X17193943Y-12064367D01*
X17174895Y-12054843D01*
X17146324Y-12054843D01*
X17127276Y-12064367D01*
X17117752Y-12073890D01*
X17327276Y-12188176D02*
X17308229Y-12178652D01*
X17298705Y-12169128D01*
X17289181Y-12150081D01*
X17289181Y-12092938D01*
X17298705Y-12073890D01*
X17308229Y-12064367D01*
X17327276Y-12054843D01*
X17355848Y-12054843D01*
X17374895Y-12064367D01*
X17384419Y-12073890D01*
X17393943Y-12092938D01*
X17393943Y-12150081D01*
X17384419Y-12169128D01*
X17374895Y-12178652D01*
X17355848Y-12188176D01*
X17327276Y-12188176D01*
X17508229Y-12188176D02*
X17489181Y-12178652D01*
X17479657Y-12159605D01*
X17479657Y-11988176D01*
X17660610Y-12178652D02*
X17641562Y-12188176D01*
X17603467Y-12188176D01*
X17584419Y-12178652D01*
X17574895Y-12159605D01*
X17574895Y-12083414D01*
X17584419Y-12064367D01*
X17603467Y-12054843D01*
X17641562Y-12054843D01*
X17660610Y-12064367D01*
X17670133Y-12083414D01*
X17670133Y-12102462D01*
X17574895Y-12121509D01*
X17746324Y-12178652D02*
X17765371Y-12188176D01*
X17803467Y-12188176D01*
X17822514Y-12178652D01*
X17832038Y-12159605D01*
X17832038Y-12150081D01*
X17822514Y-12131033D01*
X17803467Y-12121509D01*
X17774895Y-12121509D01*
X17755848Y-12111986D01*
X17746324Y-12092938D01*
X17746324Y-12083414D01*
X17755848Y-12064367D01*
X17774895Y-12054843D01*
X17803467Y-12054843D01*
X17822514Y-12064367D01*
X17898705Y-12264367D02*
X17908229Y-12254843D01*
X17927276Y-12226271D01*
X17936800Y-12207224D01*
X17946324Y-12178652D01*
X17955848Y-12131033D01*
X17955848Y-12092938D01*
X17946324Y-12045319D01*
X17936800Y-12016748D01*
X17927276Y-11997700D01*
X17908229Y-11969128D01*
X17898705Y-11959605D01*
D10*
X13076800Y-12311700D02*
X13076800Y-12411700D01*
X13026800Y-12361700D02*
X13126800Y-12361700D01*
D11*
X13489181Y-12452176D02*
X13374895Y-12452176D01*
X13432038Y-12452176D02*
X13432038Y-12252176D01*
X13412990Y-12280748D01*
X13393943Y-12299795D01*
X13374895Y-12309319D01*
X13574895Y-12433128D02*
X13584419Y-12442652D01*
X13574895Y-12452176D01*
X13565371Y-12442652D01*
X13574895Y-12433128D01*
X13574895Y-12452176D01*
X13708228Y-12252176D02*
X13727276Y-12252176D01*
X13746324Y-12261700D01*
X13755848Y-12271224D01*
X13765371Y-12290271D01*
X13774895Y-12328367D01*
X13774895Y-12375986D01*
X13765371Y-12414081D01*
X13755848Y-12433128D01*
X13746324Y-12442652D01*
X13727276Y-12452176D01*
X13708228Y-12452176D01*
X13689181Y-12442652D01*
X13679657Y-12433128D01*
X13670133Y-12414081D01*
X13660609Y-12375986D01*
X13660609Y-12328367D01*
X13670133Y-12290271D01*
X13679657Y-12271224D01*
X13689181Y-12261700D01*
X13708228Y-12252176D01*
X13898705Y-12252176D02*
X13917752Y-12252176D01*
X13936800Y-12261700D01*
X13946324Y-12271224D01*
X13955848Y-12290271D01*
X13965371Y-12328367D01*
X13965371Y-12375986D01*
X13955848Y-12414081D01*
X13946324Y-12433128D01*
X13936800Y-12442652D01*
X13917752Y-12452176D01*
X13898705Y-12452176D01*
X13879657Y-12442652D01*
X13870133Y-12433128D01*
X13860609Y-12414081D01*
X13851086Y-12375986D01*
X13851086Y-12328367D01*
X13860609Y-12290271D01*
X13870133Y-12271224D01*
X13879657Y-12261700D01*
X13898705Y-12252176D01*
X14089181Y-12252176D02*
X14108228Y-12252176D01*
X14127276Y-12261700D01*
X14136800Y-12271224D01*
X14146324Y-12290271D01*
X14155848Y-12328367D01*
X14155848Y-12375986D01*
X14146324Y-12414081D01*
X14136800Y-12433128D01*
X14127276Y-12442652D01*
X14108228Y-12452176D01*
X14089181Y-12452176D01*
X14070133Y-12442652D01*
X14060609Y-12433128D01*
X14051086Y-12414081D01*
X14041562Y-12375986D01*
X14041562Y-12328367D01*
X14051086Y-12290271D01*
X14060609Y-12271224D01*
X14070133Y-12261700D01*
X14089181Y-12252176D01*
X14241562Y-12452176D02*
X14241562Y-12318843D01*
X14241562Y-12337890D02*
X14251086Y-12328367D01*
X14270133Y-12318843D01*
X14298705Y-12318843D01*
X14317752Y-12328367D01*
X14327276Y-12347414D01*
X14327276Y-12452176D01*
X14327276Y-12347414D02*
X14336800Y-12328367D01*
X14355848Y-12318843D01*
X14384419Y-12318843D01*
X14403467Y-12328367D01*
X14412990Y-12347414D01*
X14412990Y-12452176D01*
X14508228Y-12452176D02*
X14508228Y-12318843D01*
X14508228Y-12337890D02*
X14517752Y-12328367D01*
X14536800Y-12318843D01*
X14565371Y-12318843D01*
X14584419Y-12328367D01*
X14593943Y-12347414D01*
X14593943Y-12452176D01*
X14593943Y-12347414D02*
X14603467Y-12328367D01*
X14622514Y-12318843D01*
X14651086Y-12318843D01*
X14670133Y-12328367D01*
X14679657Y-12347414D01*
X14679657Y-12452176D01*
X15070133Y-12242652D02*
X14898705Y-12499795D01*
X15327276Y-12252176D02*
X15346324Y-12252176D01*
X15365371Y-12261700D01*
X15374895Y-12271224D01*
X15384419Y-12290271D01*
X15393943Y-12328367D01*
X15393943Y-12375986D01*
X15384419Y-12414081D01*
X15374895Y-12433128D01*
X15365371Y-12442652D01*
X15346324Y-12452176D01*
X15327276Y-12452176D01*
X15308228Y-12442652D01*
X15298705Y-12433128D01*
X15289181Y-12414081D01*
X15279657Y-12375986D01*
X15279657Y-12328367D01*
X15289181Y-12290271D01*
X15298705Y-12271224D01*
X15308228Y-12261700D01*
X15327276Y-12252176D01*
X15479657Y-12433128D02*
X15489181Y-12442652D01*
X15479657Y-12452176D01*
X15470133Y-12442652D01*
X15479657Y-12433128D01*
X15479657Y-12452176D01*
X15612990Y-12252176D02*
X15632038Y-12252176D01*
X15651086Y-12261700D01*
X15660609Y-12271224D01*
X15670133Y-12290271D01*
X15679657Y-12328367D01*
X15679657Y-12375986D01*
X15670133Y-12414081D01*
X15660609Y-12433128D01*
X15651086Y-12442652D01*
X15632038Y-12452176D01*
X15612990Y-12452176D01*
X15593943Y-12442652D01*
X15584419Y-12433128D01*
X15574895Y-12414081D01*
X15565371Y-12375986D01*
X15565371Y-12328367D01*
X15574895Y-12290271D01*
X15584419Y-12271224D01*
X15593943Y-12261700D01*
X15612990Y-12252176D01*
X15746324Y-12252176D02*
X15870133Y-12252176D01*
X15803467Y-12328367D01*
X15832038Y-12328367D01*
X15851086Y-12337890D01*
X15860609Y-12347414D01*
X15870133Y-12366462D01*
X15870133Y-12414081D01*
X15860609Y-12433128D01*
X15851086Y-12442652D01*
X15832038Y-12452176D01*
X15774895Y-12452176D01*
X15755848Y-12442652D01*
X15746324Y-12433128D01*
X15965371Y-12452176D02*
X16003467Y-12452176D01*
X16022514Y-12442652D01*
X16032038Y-12433128D01*
X16051086Y-12404557D01*
X16060609Y-12366462D01*
X16060609Y-12290271D01*
X16051086Y-12271224D01*
X16041562Y-12261700D01*
X16022514Y-12252176D01*
X15984419Y-12252176D01*
X15965371Y-12261700D01*
X15955848Y-12271224D01*
X15946324Y-12290271D01*
X15946324Y-12337890D01*
X15955848Y-12356938D01*
X15965371Y-12366462D01*
X15984419Y-12375986D01*
X16022514Y-12375986D01*
X16041562Y-12366462D01*
X16051086Y-12356938D01*
X16060609Y-12337890D01*
X16232038Y-12318843D02*
X16232038Y-12452176D01*
X16184419Y-12242652D02*
X16136800Y-12385509D01*
X16260609Y-12385509D01*
X16327276Y-12252176D02*
X16327276Y-12290271D01*
X16403467Y-12252176D02*
X16403467Y-12290271D01*
X16698705Y-12528367D02*
X16689181Y-12518843D01*
X16670133Y-12490271D01*
X16660609Y-12471224D01*
X16651086Y-12442652D01*
X16641562Y-12395033D01*
X16641562Y-12356938D01*
X16651086Y-12309319D01*
X16660609Y-12280748D01*
X16670133Y-12261700D01*
X16689181Y-12233128D01*
X16698705Y-12223605D01*
X16755848Y-12252176D02*
X16879657Y-12252176D01*
X16812990Y-12328367D01*
X16841562Y-12328367D01*
X16860610Y-12337890D01*
X16870133Y-12347414D01*
X16879657Y-12366462D01*
X16879657Y-12414081D01*
X16870133Y-12433128D01*
X16860610Y-12442652D01*
X16841562Y-12452176D01*
X16784419Y-12452176D01*
X16765371Y-12442652D01*
X16755848Y-12433128D01*
X17051086Y-12252176D02*
X17012990Y-12252176D01*
X16993943Y-12261700D01*
X16984419Y-12271224D01*
X16965371Y-12299795D01*
X16955848Y-12337890D01*
X16955848Y-12414081D01*
X16965371Y-12433128D01*
X16974895Y-12442652D01*
X16993943Y-12452176D01*
X17032038Y-12452176D01*
X17051086Y-12442652D01*
X17060610Y-12433128D01*
X17070133Y-12414081D01*
X17070133Y-12366462D01*
X17060610Y-12347414D01*
X17051086Y-12337890D01*
X17032038Y-12328367D01*
X16993943Y-12328367D01*
X16974895Y-12337890D01*
X16965371Y-12347414D01*
X16955848Y-12366462D01*
X17308229Y-12452176D02*
X17308229Y-12252176D01*
X17393943Y-12452176D02*
X17393943Y-12347414D01*
X17384419Y-12328367D01*
X17365371Y-12318843D01*
X17336800Y-12318843D01*
X17317752Y-12328367D01*
X17308229Y-12337890D01*
X17517752Y-12452176D02*
X17498705Y-12442652D01*
X17489181Y-12433128D01*
X17479657Y-12414081D01*
X17479657Y-12356938D01*
X17489181Y-12337890D01*
X17498705Y-12328367D01*
X17517752Y-12318843D01*
X17546324Y-12318843D01*
X17565371Y-12328367D01*
X17574895Y-12337890D01*
X17584419Y-12356938D01*
X17584419Y-12414081D01*
X17574895Y-12433128D01*
X17565371Y-12442652D01*
X17546324Y-12452176D01*
X17517752Y-12452176D01*
X17698705Y-12452176D02*
X17679657Y-12442652D01*
X17670133Y-12423605D01*
X17670133Y-12252176D01*
X17851086Y-12442652D02*
X17832038Y-12452176D01*
X17793943Y-12452176D01*
X17774895Y-12442652D01*
X17765371Y-12423605D01*
X17765371Y-12347414D01*
X17774895Y-12328367D01*
X17793943Y-12318843D01*
X17832038Y-12318843D01*
X17851086Y-12328367D01*
X17860610Y-12347414D01*
X17860610Y-12366462D01*
X17765371Y-12385509D01*
X17936800Y-12442652D02*
X17955848Y-12452176D01*
X17993943Y-12452176D01*
X18012990Y-12442652D01*
X18022514Y-12423605D01*
X18022514Y-12414081D01*
X18012990Y-12395033D01*
X17993943Y-12385509D01*
X17965371Y-12385509D01*
X17946324Y-12375986D01*
X17936800Y-12356938D01*
X17936800Y-12347414D01*
X17946324Y-12328367D01*
X17965371Y-12318843D01*
X17993943Y-12318843D01*
X18012990Y-12328367D01*
X18089181Y-12528367D02*
X18098705Y-12518843D01*
X18117752Y-12490271D01*
X18127276Y-12471224D01*
X18136800Y-12442652D01*
X18146324Y-12395033D01*
X18146324Y-12356938D01*
X18136800Y-12309319D01*
X18127276Y-12280748D01*
X18117752Y-12261700D01*
X18098705Y-12233128D01*
X18089181Y-12223605D01*
M02*
