%TF.GenerationSoftware,KiCad,Pcbnew,(6.0.11-0)*%
%TF.CreationDate,2023-05-04T16:40:56+03:00*%
%TF.ProjectId,Arduino Nano Differential impdance PCB,41726475-696e-46f2-904e-616e6f204469,rev?*%
%TF.SameCoordinates,Original*%
%TF.FileFunction,Paste,Top*%
%TF.FilePolarity,Positive*%
%FSLAX46Y46*%
G04 Gerber Fmt 4.6, Leading zero omitted, Abs format (unit mm)*
G04 Created by KiCad (PCBNEW (6.0.11-0)) date 2023-05-04 16:40:56*
%MOMM*%
%LPD*%
G01*
G04 APERTURE LIST*
G04 Aperture macros list*
%AMRoundRect*
0 Rectangle with rounded corners*
0 $1 Rounding radius*
0 $2 $3 $4 $5 $6 $7 $8 $9 X,Y pos of 4 corners*
0 Add a 4 corners polygon primitive as box body*
4,1,4,$2,$3,$4,$5,$6,$7,$8,$9,$2,$3,0*
0 Add four circle primitives for the rounded corners*
1,1,$1+$1,$2,$3*
1,1,$1+$1,$4,$5*
1,1,$1+$1,$6,$7*
1,1,$1+$1,$8,$9*
0 Add four rect primitives between the rounded corners*
20,1,$1+$1,$2,$3,$4,$5,0*
20,1,$1+$1,$4,$5,$6,$7,0*
20,1,$1+$1,$6,$7,$8,$9,0*
20,1,$1+$1,$8,$9,$2,$3,0*%
%AMRotRect*
0 Rectangle, with rotation*
0 The origin of the aperture is its center*
0 $1 length*
0 $2 width*
0 $3 Rotation angle, in degrees counterclockwise*
0 Add horizontal line*
21,1,$1,$2,0,0,$3*%
G04 Aperture macros list end*
%ADD10RotRect,0.400000X1.900000X135.000000*%
%ADD11R,2.000000X0.800000*%
%ADD12RoundRect,0.218750X-0.218750X-0.256250X0.218750X-0.256250X0.218750X0.256250X-0.218750X0.256250X0*%
%ADD13RotRect,1.600000X0.550000X225.000000*%
%ADD14RotRect,0.550000X1.600000X225.000000*%
%ADD15R,2.250000X0.500000*%
%ADD16R,4.000000X2.050000*%
%ADD17R,3.500000X2.050000*%
G04 APERTURE END LIST*
D10*
%TO.C,X1*%
X154178028Y-99568028D03*
X153329500Y-98719500D03*
X152480972Y-97870972D03*
%TD*%
D11*
%TO.C,S2*%
X157480000Y-104716000D03*
X157480000Y-100516000D03*
%TD*%
D12*
%TO.C,LEDTX1*%
X160248500Y-100076000D03*
X161823500Y-100076000D03*
%TD*%
D13*
%TO.C,U2*%
X151493605Y-101640193D03*
X150927920Y-101074507D03*
X150362234Y-100508822D03*
X149796549Y-99943136D03*
X149230864Y-99377451D03*
X148665178Y-98811766D03*
X148099493Y-98246080D03*
X147533807Y-97680395D03*
D14*
X145582193Y-97680395D03*
X145016507Y-98246080D03*
X144450822Y-98811766D03*
X143885136Y-99377451D03*
X143319451Y-99943136D03*
X142753766Y-100508822D03*
X142188080Y-101074507D03*
X141622395Y-101640193D03*
D13*
X141622395Y-103591807D03*
X142188080Y-104157493D03*
X142753766Y-104723178D03*
X143319451Y-105288864D03*
X143885136Y-105854549D03*
X144450822Y-106420234D03*
X145016507Y-106985920D03*
X145582193Y-107551605D03*
D14*
X147533807Y-107551605D03*
X148099493Y-106985920D03*
X148665178Y-106420234D03*
X149230864Y-105854549D03*
X149796549Y-105288864D03*
X150362234Y-104723178D03*
X150927920Y-104157493D03*
X151493605Y-103591807D03*
%TD*%
D12*
%TO.C,LEDPWR1*%
X160248500Y-103632000D03*
X161823500Y-103632000D03*
%TD*%
D15*
%TO.C,USB2*%
X137942700Y-101016000D03*
X137942700Y-101816000D03*
X137942700Y-102616000D03*
X137942700Y-103416000D03*
X137942700Y-104216000D03*
D16*
X133717700Y-107541000D03*
D17*
X137967700Y-107541000D03*
X137967700Y-97691000D03*
D16*
X133717700Y-97691000D03*
%TD*%
D12*
%TO.C,LEDBUILTIN1*%
X160248500Y-105410000D03*
X161823500Y-105410000D03*
%TD*%
%TO.C,LEDRX1*%
X160248500Y-101854000D03*
X161823500Y-101854000D03*
%TD*%
M02*
