%TF.GenerationSoftware,KiCad,Pcbnew,(6.0.11-0)*%
%TF.CreationDate,2023-05-04T16:40:56+03:00*%
%TF.ProjectId,Arduino Nano Differential impdance PCB,41726475-696e-46f2-904e-616e6f204469,rev?*%
%TF.SameCoordinates,Original*%
%TF.FileFunction,Legend,Top*%
%TF.FilePolarity,Positive*%
%FSLAX46Y46*%
G04 Gerber Fmt 4.6, Leading zero omitted, Abs format (unit mm)*
G04 Created by KiCad (PCBNEW (6.0.11-0)) date 2023-05-04 16:40:56*
%MOMM*%
%LPD*%
G01*
G04 APERTURE LIST*
%ADD10C,0.150000*%
%ADD11C,0.075000*%
%ADD12C,0.127000*%
%ADD13C,0.200000*%
%ADD14C,0.120000*%
%ADD15C,0.152400*%
%ADD16C,0.254000*%
G04 APERTURE END LIST*
D10*
%TO.C,X1*%
X151023826Y-97273524D02*
X151778073Y-97424374D01*
X151325525Y-96971825D02*
X151476374Y-97726072D01*
X152187521Y-97014925D02*
X151928922Y-97273524D01*
X152058222Y-97144225D02*
X151605674Y-96691676D01*
X151627224Y-96799426D01*
X151627224Y-96885625D01*
X151605674Y-96950275D01*
%TO.C,S2*%
X157851801Y-103729917D02*
X157899551Y-103586667D01*
X157899551Y-103347918D01*
X157851801Y-103252418D01*
X157804051Y-103204668D01*
X157708551Y-103156918D01*
X157613051Y-103156918D01*
X157517551Y-103204668D01*
X157469801Y-103252418D01*
X157422052Y-103347918D01*
X157374302Y-103538917D01*
X157326552Y-103634417D01*
X157278802Y-103682167D01*
X157183302Y-103729917D01*
X157087802Y-103729917D01*
X156992302Y-103682167D01*
X156944553Y-103634417D01*
X156896803Y-103538917D01*
X156896803Y-103300168D01*
X156944553Y-103156918D01*
X156992302Y-102774919D02*
X156944553Y-102727169D01*
X156896803Y-102631669D01*
X156896803Y-102392920D01*
X156944553Y-102297420D01*
X156992302Y-102249670D01*
X157087802Y-102201920D01*
X157183302Y-102201920D01*
X157326552Y-102249670D01*
X157899551Y-102822669D01*
X157899551Y-102201920D01*
D11*
%TO.C,LEDTX1*%
X162983142Y-100211714D02*
X162840285Y-100211714D01*
X162840285Y-99911714D01*
X163083142Y-100054571D02*
X163183142Y-100054571D01*
X163226000Y-100211714D02*
X163083142Y-100211714D01*
X163083142Y-99911714D01*
X163226000Y-99911714D01*
X163354571Y-100211714D02*
X163354571Y-99911714D01*
X163426000Y-99911714D01*
X163468857Y-99926000D01*
X163497428Y-99954571D01*
X163511714Y-99983142D01*
X163526000Y-100040285D01*
X163526000Y-100083142D01*
X163511714Y-100140285D01*
X163497428Y-100168857D01*
X163468857Y-100197428D01*
X163426000Y-100211714D01*
X163354571Y-100211714D01*
X163611714Y-99911714D02*
X163783142Y-99911714D01*
X163697428Y-100211714D02*
X163697428Y-99911714D01*
X163854571Y-99911714D02*
X164054571Y-100211714D01*
X164054571Y-99911714D02*
X163854571Y-100211714D01*
X164326000Y-100211714D02*
X164154571Y-100211714D01*
X164240285Y-100211714D02*
X164240285Y-99911714D01*
X164211714Y-99954571D01*
X164183142Y-99983142D01*
X164154571Y-99997428D01*
D10*
%TO.C,U2*%
X153456088Y-103602349D02*
X153823851Y-103970112D01*
X153888751Y-103991746D01*
X153932017Y-103991746D01*
X153996917Y-103970112D01*
X154083449Y-103883580D01*
X154105082Y-103818680D01*
X154105082Y-103775414D01*
X154083449Y-103710514D01*
X153715686Y-103342751D01*
X153953650Y-103191319D02*
X153953650Y-103148052D01*
X153975283Y-103083153D01*
X154083449Y-102974987D01*
X154148349Y-102953354D01*
X154191615Y-102953354D01*
X154256514Y-102974987D01*
X154299781Y-103018253D01*
X154343047Y-103104786D01*
X154343047Y-103623982D01*
X154624278Y-103342751D01*
D11*
%TO.C,LEDPWR1*%
X162895857Y-103894714D02*
X162753000Y-103894714D01*
X162753000Y-103594714D01*
X162995857Y-103737571D02*
X163095857Y-103737571D01*
X163138714Y-103894714D02*
X162995857Y-103894714D01*
X162995857Y-103594714D01*
X163138714Y-103594714D01*
X163267285Y-103894714D02*
X163267285Y-103594714D01*
X163338714Y-103594714D01*
X163381571Y-103609000D01*
X163410142Y-103637571D01*
X163424428Y-103666142D01*
X163438714Y-103723285D01*
X163438714Y-103766142D01*
X163424428Y-103823285D01*
X163410142Y-103851857D01*
X163381571Y-103880428D01*
X163338714Y-103894714D01*
X163267285Y-103894714D01*
X163567285Y-103894714D02*
X163567285Y-103594714D01*
X163681571Y-103594714D01*
X163710142Y-103609000D01*
X163724428Y-103623285D01*
X163738714Y-103651857D01*
X163738714Y-103694714D01*
X163724428Y-103723285D01*
X163710142Y-103737571D01*
X163681571Y-103751857D01*
X163567285Y-103751857D01*
X163838714Y-103594714D02*
X163910142Y-103894714D01*
X163967285Y-103680428D01*
X164024428Y-103894714D01*
X164095857Y-103594714D01*
X164381571Y-103894714D02*
X164281571Y-103751857D01*
X164210142Y-103894714D02*
X164210142Y-103594714D01*
X164324428Y-103594714D01*
X164353000Y-103609000D01*
X164367285Y-103623285D01*
X164381571Y-103651857D01*
X164381571Y-103694714D01*
X164367285Y-103723285D01*
X164353000Y-103737571D01*
X164324428Y-103751857D01*
X164210142Y-103751857D01*
X164667285Y-103894714D02*
X164495857Y-103894714D01*
X164581571Y-103894714D02*
X164581571Y-103594714D01*
X164553000Y-103637571D01*
X164524428Y-103666142D01*
X164495857Y-103680428D01*
D10*
%TO.C,USB2*%
X132547828Y-104228847D02*
X133358168Y-104228847D01*
X133453502Y-104181180D01*
X133501169Y-104133513D01*
X133548836Y-104038179D01*
X133548836Y-103847510D01*
X133501169Y-103752176D01*
X133453502Y-103704509D01*
X133358168Y-103656842D01*
X132547828Y-103656842D01*
X133501169Y-103227839D02*
X133548836Y-103084838D01*
X133548836Y-102846502D01*
X133501169Y-102751168D01*
X133453502Y-102703501D01*
X133358168Y-102655834D01*
X133262834Y-102655834D01*
X133167500Y-102703501D01*
X133119833Y-102751168D01*
X133072166Y-102846502D01*
X133024499Y-103037171D01*
X132976832Y-103132505D01*
X132929165Y-103180172D01*
X132833831Y-103227839D01*
X132738497Y-103227839D01*
X132643163Y-103180172D01*
X132595496Y-103132505D01*
X132547828Y-103037171D01*
X132547828Y-102798835D01*
X132595496Y-102655834D01*
X133024499Y-101893161D02*
X133072166Y-101750160D01*
X133119833Y-101702493D01*
X133215167Y-101654826D01*
X133358168Y-101654826D01*
X133453502Y-101702493D01*
X133501169Y-101750160D01*
X133548836Y-101845494D01*
X133548836Y-102226831D01*
X132547828Y-102226831D01*
X132547828Y-101893161D01*
X132595496Y-101797827D01*
X132643163Y-101750160D01*
X132738497Y-101702493D01*
X132833831Y-101702493D01*
X132929165Y-101750160D01*
X132976832Y-101797827D01*
X133024499Y-101893161D01*
X133024499Y-102226831D01*
X132643163Y-101273490D02*
X132595496Y-101225823D01*
X132547828Y-101130489D01*
X132547828Y-100892153D01*
X132595496Y-100796819D01*
X132643163Y-100749152D01*
X132738497Y-100701485D01*
X132833831Y-100701485D01*
X132976832Y-100749152D01*
X133548836Y-101321157D01*
X133548836Y-100701485D01*
D11*
%TO.C,LEDBUILTIN1*%
X162905428Y-105545714D02*
X162762571Y-105545714D01*
X162762571Y-105245714D01*
X163005428Y-105388571D02*
X163105428Y-105388571D01*
X163148285Y-105545714D02*
X163005428Y-105545714D01*
X163005428Y-105245714D01*
X163148285Y-105245714D01*
X163276857Y-105545714D02*
X163276857Y-105245714D01*
X163348285Y-105245714D01*
X163391142Y-105260000D01*
X163419714Y-105288571D01*
X163434000Y-105317142D01*
X163448285Y-105374285D01*
X163448285Y-105417142D01*
X163434000Y-105474285D01*
X163419714Y-105502857D01*
X163391142Y-105531428D01*
X163348285Y-105545714D01*
X163276857Y-105545714D01*
X163676857Y-105388571D02*
X163719714Y-105402857D01*
X163734000Y-105417142D01*
X163748285Y-105445714D01*
X163748285Y-105488571D01*
X163734000Y-105517142D01*
X163719714Y-105531428D01*
X163691142Y-105545714D01*
X163576857Y-105545714D01*
X163576857Y-105245714D01*
X163676857Y-105245714D01*
X163705428Y-105260000D01*
X163719714Y-105274285D01*
X163734000Y-105302857D01*
X163734000Y-105331428D01*
X163719714Y-105360000D01*
X163705428Y-105374285D01*
X163676857Y-105388571D01*
X163576857Y-105388571D01*
X163876857Y-105245714D02*
X163876857Y-105488571D01*
X163891142Y-105517142D01*
X163905428Y-105531428D01*
X163934000Y-105545714D01*
X163991142Y-105545714D01*
X164019714Y-105531428D01*
X164034000Y-105517142D01*
X164048285Y-105488571D01*
X164048285Y-105245714D01*
X164191142Y-105545714D02*
X164191142Y-105245714D01*
X164476857Y-105545714D02*
X164334000Y-105545714D01*
X164334000Y-105245714D01*
X164534000Y-105245714D02*
X164705428Y-105245714D01*
X164619714Y-105545714D02*
X164619714Y-105245714D01*
X164805428Y-105545714D02*
X164805428Y-105245714D01*
X164948285Y-105545714D02*
X164948285Y-105245714D01*
X165119714Y-105545714D01*
X165119714Y-105245714D01*
X165419714Y-105545714D02*
X165248285Y-105545714D01*
X165334000Y-105545714D02*
X165334000Y-105245714D01*
X165305428Y-105288571D01*
X165276857Y-105317142D01*
X165248285Y-105331428D01*
%TO.C,LEDRX1*%
X162947428Y-101989714D02*
X162804571Y-101989714D01*
X162804571Y-101689714D01*
X163047428Y-101832571D02*
X163147428Y-101832571D01*
X163190285Y-101989714D02*
X163047428Y-101989714D01*
X163047428Y-101689714D01*
X163190285Y-101689714D01*
X163318857Y-101989714D02*
X163318857Y-101689714D01*
X163390285Y-101689714D01*
X163433142Y-101704000D01*
X163461714Y-101732571D01*
X163476000Y-101761142D01*
X163490285Y-101818285D01*
X163490285Y-101861142D01*
X163476000Y-101918285D01*
X163461714Y-101946857D01*
X163433142Y-101975428D01*
X163390285Y-101989714D01*
X163318857Y-101989714D01*
X163790285Y-101989714D02*
X163690285Y-101846857D01*
X163618857Y-101989714D02*
X163618857Y-101689714D01*
X163733142Y-101689714D01*
X163761714Y-101704000D01*
X163776000Y-101718285D01*
X163790285Y-101746857D01*
X163790285Y-101789714D01*
X163776000Y-101818285D01*
X163761714Y-101832571D01*
X163733142Y-101846857D01*
X163618857Y-101846857D01*
X163890285Y-101689714D02*
X164090285Y-101989714D01*
X164090285Y-101689714D02*
X163890285Y-101989714D01*
X164361714Y-101989714D02*
X164190285Y-101989714D01*
X164276000Y-101989714D02*
X164276000Y-101689714D01*
X164247428Y-101732571D01*
X164218857Y-101761142D01*
X164190285Y-101775428D01*
D12*
%TO.C,X1*%
X155005343Y-99476104D02*
X154086104Y-100395343D01*
X152572896Y-97043657D02*
X151653657Y-97962896D01*
D13*
X154914423Y-100204424D02*
G75*
G03*
X154914423Y-100204424I-99999J0D01*
G01*
D14*
%TO.C,LEDTX1*%
X159551000Y-99341000D02*
X159551000Y-100811000D01*
X159551000Y-100811000D02*
X161836000Y-100811000D01*
X161836000Y-99341000D02*
X159551000Y-99341000D01*
D15*
%TO.C,U2*%
X141537542Y-102616000D02*
X141749674Y-102828132D01*
X151578458Y-102616000D02*
X151366326Y-102828132D01*
X141749674Y-102403868D02*
X141537542Y-102616000D01*
X146770132Y-107424326D02*
X146558000Y-107636458D01*
X146558000Y-97595542D02*
X146345868Y-97807674D01*
X151366326Y-102403868D02*
X151578458Y-102616000D01*
X146770132Y-97807674D02*
X146558000Y-97595542D01*
X146558000Y-107636458D02*
X146345868Y-107424326D01*
D16*
X152475497Y-100785301D02*
G75*
G03*
X152475497Y-100785301I-127000J0D01*
G01*
D14*
%TO.C,H3*%
X171953000Y-101361000D02*
X171953000Y-98761000D01*
X169353000Y-101361000D02*
X169353000Y-106501000D01*
X169353000Y-101361000D02*
X171953000Y-101361000D01*
X169353000Y-100091000D02*
X169353000Y-98761000D01*
X169353000Y-106501000D02*
X174383000Y-106491000D01*
X169353000Y-98761000D02*
X170683000Y-98761000D01*
X171953000Y-98761000D02*
X174383000Y-98761000D01*
%TO.C,H1*%
X133793000Y-93666000D02*
X133793000Y-96326000D01*
X172013000Y-93666000D02*
X172013000Y-94996000D01*
X170683000Y-93666000D02*
X172013000Y-93666000D01*
X169413000Y-93666000D02*
X169413000Y-96326000D01*
X169413000Y-93666000D02*
X133793000Y-93666000D01*
X169413000Y-96326000D02*
X133793000Y-96326000D01*
%TO.C,H2*%
X136403000Y-108906000D02*
X172023000Y-108906000D01*
X135133000Y-111566000D02*
X133803000Y-111566000D01*
X172023000Y-111566000D02*
X172023000Y-108906000D01*
X133803000Y-111566000D02*
X133803000Y-110236000D01*
X136403000Y-111566000D02*
X172023000Y-111566000D01*
X136403000Y-111566000D02*
X136403000Y-108906000D01*
%TO.C,LEDPWR1*%
X161836000Y-102897000D02*
X159551000Y-102897000D01*
X159551000Y-102897000D02*
X159551000Y-104367000D01*
X159551000Y-104367000D02*
X161836000Y-104367000D01*
%TO.C,LEDBUILTIN1*%
X159551000Y-106145000D02*
X161836000Y-106145000D01*
X159551000Y-104675000D02*
X159551000Y-106145000D01*
X161836000Y-104675000D02*
X159551000Y-104675000D01*
%TO.C,LEDRX1*%
X159551000Y-101119000D02*
X159551000Y-102589000D01*
X159551000Y-102589000D02*
X161836000Y-102589000D01*
X161836000Y-101119000D02*
X159551000Y-101119000D01*
%TD*%
M02*
