%TF.GenerationSoftware,KiCad,Pcbnew,(6.0.11-0)*%
%TF.CreationDate,2023-05-04T16:40:56+03:00*%
%TF.ProjectId,Arduino Nano Differential impdance PCB,41726475-696e-46f2-904e-616e6f204469,rev?*%
%TF.SameCoordinates,Original*%
%TF.FileFunction,Legend,Bot*%
%TF.FilePolarity,Positive*%
%FSLAX46Y46*%
G04 Gerber Fmt 4.6, Leading zero omitted, Abs format (unit mm)*
G04 Created by KiCad (PCBNEW (6.0.11-0)) date 2023-05-04 16:40:56*
%MOMM*%
%LPD*%
G01*
G04 APERTURE LIST*
%ADD10C,0.125000*%
%ADD11C,0.100000*%
%ADD12C,0.150000*%
%ADD13C,0.063500*%
%ADD14C,0.120000*%
%ADD15C,0.127000*%
%ADD16C,0.200000*%
G04 APERTURE END LIST*
D10*
%TO.C,C13*%
X152010228Y-104521771D02*
X152034038Y-104545580D01*
X152105466Y-104569390D01*
X152153085Y-104569390D01*
X152224514Y-104545580D01*
X152272133Y-104497961D01*
X152295942Y-104450342D01*
X152319752Y-104355104D01*
X152319752Y-104283676D01*
X152295942Y-104188438D01*
X152272133Y-104140819D01*
X152224514Y-104093200D01*
X152153085Y-104069390D01*
X152105466Y-104069390D01*
X152034038Y-104093200D01*
X152010228Y-104117009D01*
X151534038Y-104569390D02*
X151819752Y-104569390D01*
X151676895Y-104569390D02*
X151676895Y-104069390D01*
X151724514Y-104140819D01*
X151772133Y-104188438D01*
X151819752Y-104212247D01*
X151367371Y-104069390D02*
X151057847Y-104069390D01*
X151224514Y-104259866D01*
X151153085Y-104259866D01*
X151105466Y-104283676D01*
X151081657Y-104307485D01*
X151057847Y-104355104D01*
X151057847Y-104474152D01*
X151081657Y-104521771D01*
X151105466Y-104545580D01*
X151153085Y-104569390D01*
X151295942Y-104569390D01*
X151343561Y-104545580D01*
X151367371Y-104521771D01*
D11*
%TO.C,C4*%
X151619733Y-109215568D02*
X151643542Y-109239377D01*
X151714971Y-109263187D01*
X151762590Y-109263187D01*
X151834019Y-109239377D01*
X151881638Y-109191758D01*
X151905447Y-109144139D01*
X151929257Y-109048901D01*
X151929257Y-108977473D01*
X151905447Y-108882235D01*
X151881638Y-108834616D01*
X151834019Y-108786997D01*
X151762590Y-108763187D01*
X151714971Y-108763187D01*
X151643542Y-108786997D01*
X151619733Y-108810806D01*
X151191161Y-108929854D02*
X151191161Y-109263187D01*
X151310209Y-108739377D02*
X151429257Y-109096520D01*
X151119733Y-109096520D01*
D10*
%TO.C,C3*%
X136424171Y-102329466D02*
X136447980Y-102305657D01*
X136471790Y-102234228D01*
X136471790Y-102186609D01*
X136447980Y-102115180D01*
X136400361Y-102067561D01*
X136352742Y-102043752D01*
X136257504Y-102019942D01*
X136186076Y-102019942D01*
X136090838Y-102043752D01*
X136043219Y-102067561D01*
X135995600Y-102115180D01*
X135971790Y-102186609D01*
X135971790Y-102234228D01*
X135995600Y-102305657D01*
X136019409Y-102329466D01*
X135971790Y-102496133D02*
X135971790Y-102805657D01*
X136162266Y-102638990D01*
X136162266Y-102710419D01*
X136186076Y-102758038D01*
X136209885Y-102781847D01*
X136257504Y-102805657D01*
X136376552Y-102805657D01*
X136424171Y-102781847D01*
X136447980Y-102758038D01*
X136471790Y-102710419D01*
X136471790Y-102567561D01*
X136447980Y-102519942D01*
X136424171Y-102496133D01*
D12*
%TO.C,U5*%
X149720380Y-101854095D02*
X150529904Y-101854095D01*
X150625142Y-101901714D01*
X150672761Y-101949333D01*
X150720380Y-102044571D01*
X150720380Y-102235047D01*
X150672761Y-102330285D01*
X150625142Y-102377904D01*
X150529904Y-102425523D01*
X149720380Y-102425523D01*
X149720380Y-103377904D02*
X149720380Y-102901714D01*
X150196571Y-102854095D01*
X150148952Y-102901714D01*
X150101333Y-102996952D01*
X150101333Y-103235047D01*
X150148952Y-103330285D01*
X150196571Y-103377904D01*
X150291809Y-103425523D01*
X150529904Y-103425523D01*
X150625142Y-103377904D01*
X150672761Y-103330285D01*
X150720380Y-103235047D01*
X150720380Y-102996952D01*
X150672761Y-102901714D01*
X150625142Y-102854095D01*
D11*
%TO.C,RP2*%
X155527333Y-104620190D02*
X155694000Y-104382095D01*
X155813047Y-104620190D02*
X155813047Y-104120190D01*
X155622571Y-104120190D01*
X155574952Y-104144000D01*
X155551142Y-104167809D01*
X155527333Y-104215428D01*
X155527333Y-104286857D01*
X155551142Y-104334476D01*
X155574952Y-104358285D01*
X155622571Y-104382095D01*
X155813047Y-104382095D01*
X155313047Y-104620190D02*
X155313047Y-104120190D01*
X155122571Y-104120190D01*
X155074952Y-104144000D01*
X155051142Y-104167809D01*
X155027333Y-104215428D01*
X155027333Y-104286857D01*
X155051142Y-104334476D01*
X155074952Y-104358285D01*
X155122571Y-104382095D01*
X155313047Y-104382095D01*
X154836857Y-104167809D02*
X154813047Y-104144000D01*
X154765428Y-104120190D01*
X154646380Y-104120190D01*
X154598761Y-104144000D01*
X154574952Y-104167809D01*
X154551142Y-104215428D01*
X154551142Y-104263047D01*
X154574952Y-104334476D01*
X154860666Y-104620190D01*
X154551142Y-104620190D01*
D13*
%TO.C,C11*%
X132604628Y-96393771D02*
X132628438Y-96417580D01*
X132699866Y-96441390D01*
X132747485Y-96441390D01*
X132818914Y-96417580D01*
X132866533Y-96369961D01*
X132890342Y-96322342D01*
X132914152Y-96227104D01*
X132914152Y-96155676D01*
X132890342Y-96060438D01*
X132866533Y-96012819D01*
X132818914Y-95965200D01*
X132747485Y-95941390D01*
X132699866Y-95941390D01*
X132628438Y-95965200D01*
X132604628Y-95989009D01*
X132128438Y-96441390D02*
X132414152Y-96441390D01*
X132271295Y-96441390D02*
X132271295Y-95941390D01*
X132318914Y-96012819D01*
X132366533Y-96060438D01*
X132414152Y-96084247D01*
X131652247Y-96441390D02*
X131937961Y-96441390D01*
X131795104Y-96441390D02*
X131795104Y-95941390D01*
X131842723Y-96012819D01*
X131890342Y-96060438D01*
X131937961Y-96084247D01*
D11*
%TO.C,D1*%
X159500047Y-96483890D02*
X159500047Y-95983890D01*
X159381000Y-95983890D01*
X159309571Y-96007700D01*
X159261952Y-96055319D01*
X159238142Y-96102938D01*
X159214333Y-96198176D01*
X159214333Y-96269604D01*
X159238142Y-96364842D01*
X159261952Y-96412461D01*
X159309571Y-96460080D01*
X159381000Y-96483890D01*
X159500047Y-96483890D01*
X158738142Y-96483890D02*
X159023857Y-96483890D01*
X158881000Y-96483890D02*
X158881000Y-95983890D01*
X158928619Y-96055319D01*
X158976238Y-96102938D01*
X159023857Y-96126747D01*
D13*
%TO.C,VRU1*%
X165057666Y-104889904D02*
X164973000Y-105143904D01*
X164888333Y-104889904D01*
X164658523Y-105143904D02*
X164743190Y-105022952D01*
X164803666Y-105143904D02*
X164803666Y-104889904D01*
X164706904Y-104889904D01*
X164682714Y-104902000D01*
X164670619Y-104914095D01*
X164658523Y-104938285D01*
X164658523Y-104974571D01*
X164670619Y-104998761D01*
X164682714Y-105010857D01*
X164706904Y-105022952D01*
X164803666Y-105022952D01*
X164549666Y-104889904D02*
X164549666Y-105095523D01*
X164537571Y-105119714D01*
X164525476Y-105131809D01*
X164501285Y-105143904D01*
X164452904Y-105143904D01*
X164428714Y-105131809D01*
X164416619Y-105119714D01*
X164404523Y-105095523D01*
X164404523Y-104889904D01*
X164150523Y-105143904D02*
X164295666Y-105143904D01*
X164223095Y-105143904D02*
X164223095Y-104889904D01*
X164247285Y-104926190D01*
X164271476Y-104950380D01*
X164295666Y-104962476D01*
D11*
%TO.C,C2*%
X158833333Y-106807771D02*
X158857142Y-106831580D01*
X158928571Y-106855390D01*
X158976190Y-106855390D01*
X159047619Y-106831580D01*
X159095238Y-106783961D01*
X159119047Y-106736342D01*
X159142857Y-106641104D01*
X159142857Y-106569676D01*
X159119047Y-106474438D01*
X159095238Y-106426819D01*
X159047619Y-106379200D01*
X158976190Y-106355390D01*
X158928571Y-106355390D01*
X158857142Y-106379200D01*
X158833333Y-106403009D01*
X158642857Y-106403009D02*
X158619047Y-106379200D01*
X158571428Y-106355390D01*
X158452380Y-106355390D01*
X158404761Y-106379200D01*
X158380952Y-106403009D01*
X158357142Y-106450628D01*
X158357142Y-106498247D01*
X158380952Y-106569676D01*
X158666666Y-106855390D01*
X158357142Y-106855390D01*
D10*
%TO.C,C14*%
X140885028Y-108433371D02*
X140908838Y-108457180D01*
X140980266Y-108480990D01*
X141027885Y-108480990D01*
X141099314Y-108457180D01*
X141146933Y-108409561D01*
X141170742Y-108361942D01*
X141194552Y-108266704D01*
X141194552Y-108195276D01*
X141170742Y-108100038D01*
X141146933Y-108052419D01*
X141099314Y-108004800D01*
X141027885Y-107980990D01*
X140980266Y-107980990D01*
X140908838Y-108004800D01*
X140885028Y-108028609D01*
X140408838Y-108480990D02*
X140694552Y-108480990D01*
X140551695Y-108480990D02*
X140551695Y-107980990D01*
X140599314Y-108052419D01*
X140646933Y-108100038D01*
X140694552Y-108123847D01*
X139980266Y-108147657D02*
X139980266Y-108480990D01*
X140099314Y-107957180D02*
X140218361Y-108314323D01*
X139908838Y-108314323D01*
D11*
%TO.C,RP1*%
X155527333Y-96492190D02*
X155694000Y-96254095D01*
X155813047Y-96492190D02*
X155813047Y-95992190D01*
X155622571Y-95992190D01*
X155574952Y-96016000D01*
X155551142Y-96039809D01*
X155527333Y-96087428D01*
X155527333Y-96158857D01*
X155551142Y-96206476D01*
X155574952Y-96230285D01*
X155622571Y-96254095D01*
X155813047Y-96254095D01*
X155313047Y-96492190D02*
X155313047Y-95992190D01*
X155122571Y-95992190D01*
X155074952Y-96016000D01*
X155051142Y-96039809D01*
X155027333Y-96087428D01*
X155027333Y-96158857D01*
X155051142Y-96206476D01*
X155074952Y-96230285D01*
X155122571Y-96254095D01*
X155313047Y-96254095D01*
X154551142Y-96492190D02*
X154836857Y-96492190D01*
X154694000Y-96492190D02*
X154694000Y-95992190D01*
X154741619Y-96063619D01*
X154789238Y-96111238D01*
X154836857Y-96135047D01*
D12*
%TO.C,F1*%
X133024571Y-102384266D02*
X133024571Y-102050933D01*
X133548380Y-102050933D02*
X132548380Y-102050933D01*
X132548380Y-102527123D01*
X133548380Y-103431885D02*
X133548380Y-102860457D01*
X133548380Y-103146171D02*
X132548380Y-103146171D01*
X132691238Y-103050933D01*
X132786476Y-102955695D01*
X132834095Y-102860457D01*
D10*
%TO.C,C1*%
X156661333Y-102413571D02*
X156685142Y-102437380D01*
X156756571Y-102461190D01*
X156804190Y-102461190D01*
X156875619Y-102437380D01*
X156923238Y-102389761D01*
X156947047Y-102342142D01*
X156970857Y-102246904D01*
X156970857Y-102175476D01*
X156947047Y-102080238D01*
X156923238Y-102032619D01*
X156875619Y-101985000D01*
X156804190Y-101961190D01*
X156756571Y-101961190D01*
X156685142Y-101985000D01*
X156661333Y-102008809D01*
X156185142Y-102461190D02*
X156470857Y-102461190D01*
X156328000Y-102461190D02*
X156328000Y-101961190D01*
X156375619Y-102032619D01*
X156423238Y-102080238D01*
X156470857Y-102104047D01*
D11*
%TO.C,C7*%
X164573733Y-96495371D02*
X164597542Y-96519180D01*
X164668971Y-96542990D01*
X164716590Y-96542990D01*
X164788019Y-96519180D01*
X164835638Y-96471561D01*
X164859447Y-96423942D01*
X164883257Y-96328704D01*
X164883257Y-96257276D01*
X164859447Y-96162038D01*
X164835638Y-96114419D01*
X164788019Y-96066800D01*
X164716590Y-96042990D01*
X164668971Y-96042990D01*
X164597542Y-96066800D01*
X164573733Y-96090609D01*
X164407066Y-96042990D02*
X164073733Y-96042990D01*
X164288019Y-96542990D01*
D13*
%TO.C,C12*%
X167707428Y-98476571D02*
X167731238Y-98500380D01*
X167802666Y-98524190D01*
X167850285Y-98524190D01*
X167921714Y-98500380D01*
X167969333Y-98452761D01*
X167993142Y-98405142D01*
X168016952Y-98309904D01*
X168016952Y-98238476D01*
X167993142Y-98143238D01*
X167969333Y-98095619D01*
X167921714Y-98048000D01*
X167850285Y-98024190D01*
X167802666Y-98024190D01*
X167731238Y-98048000D01*
X167707428Y-98071809D01*
X167231238Y-98524190D02*
X167516952Y-98524190D01*
X167374095Y-98524190D02*
X167374095Y-98024190D01*
X167421714Y-98095619D01*
X167469333Y-98143238D01*
X167516952Y-98167047D01*
X167040761Y-98071809D02*
X167016952Y-98048000D01*
X166969333Y-98024190D01*
X166850285Y-98024190D01*
X166802666Y-98048000D01*
X166778857Y-98071809D01*
X166755047Y-98119428D01*
X166755047Y-98167047D01*
X166778857Y-98238476D01*
X167064571Y-98524190D01*
X166755047Y-98524190D01*
D14*
%TO.C,C13*%
X151778580Y-105027000D02*
X151497420Y-105027000D01*
X151778580Y-106047000D02*
X151497420Y-106047000D01*
%TO.C,C4*%
X151497420Y-107313000D02*
X151778580Y-107313000D01*
X151497420Y-108333000D02*
X151778580Y-108333000D01*
%TO.C,C3*%
X138051000Y-102756580D02*
X138051000Y-102475420D01*
X137031000Y-102756580D02*
X137031000Y-102475420D01*
D12*
%TO.C,U5*%
X138693000Y-105491000D02*
X139343000Y-105491000D01*
X138693000Y-105491000D02*
X138693000Y-99741000D01*
X149343000Y-105491000D02*
X149343000Y-99741000D01*
X138693000Y-99741000D02*
X139343000Y-99741000D01*
X149343000Y-99741000D02*
X148693000Y-99741000D01*
X149343000Y-105491000D02*
X148768000Y-105491000D01*
X148768000Y-105491000D02*
X148768000Y-107091000D01*
D14*
%TO.C,RP2*%
X154694000Y-108360000D02*
X155694000Y-108360000D01*
X154694000Y-105000000D02*
X155694000Y-105000000D01*
%TO.C,C11*%
X133400748Y-98700000D02*
X134823252Y-98700000D01*
X131712000Y-98790000D02*
X131912000Y-98790000D01*
X131812000Y-98890000D02*
X131812000Y-98690000D01*
X133400748Y-96880000D02*
X134823252Y-96880000D01*
X131812000Y-98501252D02*
X131812000Y-97078748D01*
D15*
%TO.C,D1*%
X161035000Y-99881200D02*
X161035000Y-100624700D01*
X159005000Y-100624700D02*
X159005000Y-99881200D01*
D16*
X160120000Y-96324700D02*
G75*
G03*
X160120000Y-96324700I-100000J0D01*
G01*
D15*
%TO.C,VRU1*%
X162842000Y-108279000D02*
X166342000Y-108279000D01*
X162842000Y-101779000D02*
X162842000Y-108279000D01*
X166342000Y-101779000D02*
X162842000Y-101779000D01*
X166342000Y-108279000D02*
X166342000Y-101779000D01*
D16*
X169442000Y-102779000D02*
G75*
G03*
X169442000Y-102779000I-100000J0D01*
G01*
D14*
%TO.C,C2*%
X158609420Y-107313000D02*
X158890580Y-107313000D01*
X158609420Y-108333000D02*
X158890580Y-108333000D01*
%TO.C,C14*%
X142861420Y-108714000D02*
X143142580Y-108714000D01*
X142861420Y-107694000D02*
X143142580Y-107694000D01*
%TO.C,RP1*%
X155694000Y-100232000D02*
X154694000Y-100232000D01*
X155694000Y-96872000D02*
X154694000Y-96872000D01*
%TO.C,F1*%
X134856800Y-104002252D02*
X134856800Y-101229748D01*
X131436800Y-104002252D02*
X131436800Y-101229748D01*
%TO.C,C1*%
X158890580Y-101725000D02*
X158609420Y-101725000D01*
X158890580Y-102745000D02*
X158609420Y-102745000D01*
%TO.C,C7*%
X164451420Y-97919000D02*
X164732580Y-97919000D01*
X164451420Y-96899000D02*
X164732580Y-96899000D01*
%TO.C,C12*%
X164858248Y-99039000D02*
X166280752Y-99039000D01*
X164858248Y-100859000D02*
X166280752Y-100859000D01*
X163269500Y-99237748D02*
X163269500Y-100660252D01*
X163169500Y-100949000D02*
X163369500Y-100949000D01*
X163269500Y-101049000D02*
X163269500Y-100849000D01*
%TD*%
M02*
