%TF.GenerationSoftware,KiCad,Pcbnew,(6.0.11-0)*%
%TF.CreationDate,2023-05-04T16:40:56+03:00*%
%TF.ProjectId,Arduino Nano Differential impdance PCB,41726475-696e-46f2-904e-616e6f204469,rev?*%
%TF.SameCoordinates,Original*%
%TF.FileFunction,Soldermask,Bot*%
%TF.FilePolarity,Negative*%
%FSLAX46Y46*%
G04 Gerber Fmt 4.6, Leading zero omitted, Abs format (unit mm)*
G04 Created by KiCad (PCBNEW (6.0.11-0)) date 2023-05-04 16:40:56*
%MOMM*%
%LPD*%
G01*
G04 APERTURE LIST*
G04 Aperture macros list*
%AMRoundRect*
0 Rectangle with rounded corners*
0 $1 Rounding radius*
0 $2 $3 $4 $5 $6 $7 $8 $9 X,Y pos of 4 corners*
0 Add a 4 corners polygon primitive as box body*
4,1,4,$2,$3,$4,$5,$6,$7,$8,$9,$2,$3,0*
0 Add four circle primitives for the rounded corners*
1,1,$1+$1,$2,$3*
1,1,$1+$1,$4,$5*
1,1,$1+$1,$6,$7*
1,1,$1+$1,$8,$9*
0 Add four rect primitives between the rounded corners*
20,1,$1+$1,$2,$3,$4,$5,0*
20,1,$1+$1,$4,$5,$6,$7,0*
20,1,$1+$1,$6,$7,$8,$9,0*
20,1,$1+$1,$8,$9,$2,$3,0*%
G04 Aperture macros list end*
%ADD10R,1.700000X1.700000*%
%ADD11O,1.700000X1.700000*%
%ADD12C,1.450000*%
%ADD13RoundRect,0.225000X0.225000X0.250000X-0.225000X0.250000X-0.225000X-0.250000X0.225000X-0.250000X0*%
%ADD14RoundRect,0.225000X-0.225000X-0.250000X0.225000X-0.250000X0.225000X0.250000X-0.225000X0.250000X0*%
%ADD15RoundRect,0.225000X0.250000X-0.225000X0.250000X0.225000X-0.250000X0.225000X-0.250000X-0.225000X0*%
%ADD16R,0.450000X1.750000*%
%ADD17R,0.800000X0.500000*%
%ADD18R,0.800000X0.400000*%
%ADD19RoundRect,0.250000X-0.412500X-0.650000X0.412500X-0.650000X0.412500X0.650000X-0.412500X0.650000X0*%
%ADD20R,2.540000X2.670000*%
%ADD21R,1.270000X0.762000*%
%ADD22RoundRect,0.111600X0.808400X0.353400X-0.808400X0.353400X-0.808400X-0.353400X0.808400X-0.353400X0*%
%ADD23RoundRect,0.736000X0.184000X0.859000X-0.184000X0.859000X-0.184000X-0.859000X0.184000X-0.859000X0*%
%ADD24RoundRect,0.250000X1.450000X-0.312500X1.450000X0.312500X-1.450000X0.312500X-1.450000X-0.312500X0*%
G04 APERTURE END LIST*
D10*
%TO.C,H3*%
X170683000Y-100091000D03*
D11*
X173223000Y-100091000D03*
X170683000Y-102631000D03*
X173223000Y-102631000D03*
X170683000Y-105171000D03*
X173223000Y-105171000D03*
%TD*%
D10*
%TO.C,H1*%
X170683000Y-94996000D03*
D11*
X168143000Y-94996000D03*
X165603000Y-94996000D03*
X163063000Y-94996000D03*
X160523000Y-94996000D03*
X157983000Y-94996000D03*
X155443000Y-94996000D03*
X152903000Y-94996000D03*
X150363000Y-94996000D03*
X147823000Y-94996000D03*
X145283000Y-94996000D03*
X142743000Y-94996000D03*
X140203000Y-94996000D03*
X137663000Y-94996000D03*
X135123000Y-94996000D03*
%TD*%
D10*
%TO.C,H2*%
X135133000Y-110236000D03*
D11*
X137673000Y-110236000D03*
X140213000Y-110236000D03*
X142753000Y-110236000D03*
X145293000Y-110236000D03*
X147833000Y-110236000D03*
X150373000Y-110236000D03*
X152913000Y-110236000D03*
X155453000Y-110236000D03*
X157993000Y-110236000D03*
X160533000Y-110236000D03*
X163073000Y-110236000D03*
X165613000Y-110236000D03*
X168153000Y-110236000D03*
X170693000Y-110236000D03*
%TD*%
D12*
%TO.C,USB2*%
X135617700Y-100416000D03*
X135617700Y-104816000D03*
%TD*%
D13*
%TO.C,C13*%
X152413000Y-105537000D03*
X150863000Y-105537000D03*
%TD*%
D14*
%TO.C,C4*%
X150863000Y-107823000D03*
X152413000Y-107823000D03*
%TD*%
D15*
%TO.C,C3*%
X137541000Y-103391000D03*
X137541000Y-101841000D03*
%TD*%
D16*
%TO.C,U5*%
X148243000Y-106216000D03*
X147593000Y-106216000D03*
X146943000Y-106216000D03*
X146293000Y-106216000D03*
X145643000Y-106216000D03*
X144993000Y-106216000D03*
X144343000Y-106216000D03*
X143693000Y-106216000D03*
X143043000Y-106216000D03*
X142393000Y-106216000D03*
X141743000Y-106216000D03*
X141093000Y-106216000D03*
X140443000Y-106216000D03*
X139793000Y-106216000D03*
X139793000Y-99016000D03*
X140443000Y-99016000D03*
X141093000Y-99016000D03*
X141743000Y-99016000D03*
X142393000Y-99016000D03*
X143043000Y-99016000D03*
X143693000Y-99016000D03*
X144343000Y-99016000D03*
X144993000Y-99016000D03*
X145643000Y-99016000D03*
X146293000Y-99016000D03*
X146943000Y-99016000D03*
X147593000Y-99016000D03*
X148243000Y-99016000D03*
%TD*%
D17*
%TO.C,RP2*%
X156094000Y-105480000D03*
D18*
X156094000Y-106280000D03*
X156094000Y-107080000D03*
D17*
X156094000Y-107880000D03*
X154294000Y-107880000D03*
D18*
X154294000Y-107080000D03*
X154294000Y-106280000D03*
D17*
X154294000Y-105480000D03*
%TD*%
D19*
%TO.C,C11*%
X132549500Y-97790000D03*
X135674500Y-97790000D03*
%TD*%
D20*
%TO.C,D1*%
X160020000Y-98226200D03*
D21*
X160020000Y-100577200D03*
%TD*%
D22*
%TO.C,VRU1*%
X167677000Y-102729000D03*
X167677000Y-105029000D03*
X167677000Y-107329000D03*
D23*
X161507000Y-105029000D03*
%TD*%
D14*
%TO.C,C2*%
X157975000Y-107823000D03*
X159525000Y-107823000D03*
%TD*%
%TO.C,C14*%
X142227000Y-108204000D03*
X143777000Y-108204000D03*
%TD*%
D17*
%TO.C,RP1*%
X154294000Y-99752000D03*
D18*
X154294000Y-98952000D03*
X154294000Y-98152000D03*
D17*
X154294000Y-97352000D03*
X156094000Y-97352000D03*
D18*
X156094000Y-98152000D03*
X156094000Y-98952000D03*
D17*
X156094000Y-99752000D03*
%TD*%
D24*
%TO.C,F1*%
X133146800Y-104753500D03*
X133146800Y-100478500D03*
%TD*%
D13*
%TO.C,C1*%
X159525000Y-102235000D03*
X157975000Y-102235000D03*
%TD*%
D14*
%TO.C,C7*%
X163817000Y-97409000D03*
X165367000Y-97409000D03*
%TD*%
D19*
%TO.C,C12*%
X164007000Y-99949000D03*
X167132000Y-99949000D03*
%TD*%
M02*
