%TF.GenerationSoftware,KiCad,Pcbnew,(6.0.11-0)*%
%TF.CreationDate,2023-05-04T16:40:56+03:00*%
%TF.ProjectId,Arduino Nano Differential impdance PCB,41726475-696e-46f2-904e-616e6f204469,rev?*%
%TF.SameCoordinates,Original*%
%TF.FileFunction,Copper,L1,Top*%
%TF.FilePolarity,Positive*%
%FSLAX46Y46*%
G04 Gerber Fmt 4.6, Leading zero omitted, Abs format (unit mm)*
G04 Created by KiCad (PCBNEW (6.0.11-0)) date 2023-05-04 16:40:56*
%MOMM*%
%LPD*%
G01*
G04 APERTURE LIST*
G04 Aperture macros list*
%AMRoundRect*
0 Rectangle with rounded corners*
0 $1 Rounding radius*
0 $2 $3 $4 $5 $6 $7 $8 $9 X,Y pos of 4 corners*
0 Add a 4 corners polygon primitive as box body*
4,1,4,$2,$3,$4,$5,$6,$7,$8,$9,$2,$3,0*
0 Add four circle primitives for the rounded corners*
1,1,$1+$1,$2,$3*
1,1,$1+$1,$4,$5*
1,1,$1+$1,$6,$7*
1,1,$1+$1,$8,$9*
0 Add four rect primitives between the rounded corners*
20,1,$1+$1,$2,$3,$4,$5,0*
20,1,$1+$1,$4,$5,$6,$7,0*
20,1,$1+$1,$6,$7,$8,$9,0*
20,1,$1+$1,$8,$9,$2,$3,0*%
%AMRotRect*
0 Rectangle, with rotation*
0 The origin of the aperture is its center*
0 $1 length*
0 $2 width*
0 $3 Rotation angle, in degrees counterclockwise*
0 Add horizontal line*
21,1,$1,$2,0,0,$3*%
G04 Aperture macros list end*
%TA.AperFunction,SMDPad,CuDef*%
%ADD10RotRect,0.400000X1.900000X135.000000*%
%TD*%
%TA.AperFunction,SMDPad,CuDef*%
%ADD11R,2.000000X0.800000*%
%TD*%
%TA.AperFunction,SMDPad,CuDef*%
%ADD12RoundRect,0.218750X-0.218750X-0.256250X0.218750X-0.256250X0.218750X0.256250X-0.218750X0.256250X0*%
%TD*%
%TA.AperFunction,SMDPad,CuDef*%
%ADD13RotRect,1.600000X0.550000X225.000000*%
%TD*%
%TA.AperFunction,SMDPad,CuDef*%
%ADD14RotRect,0.550000X1.600000X225.000000*%
%TD*%
%TA.AperFunction,ComponentPad*%
%ADD15R,1.700000X1.700000*%
%TD*%
%TA.AperFunction,ComponentPad*%
%ADD16O,1.700000X1.700000*%
%TD*%
%TA.AperFunction,SMDPad,CuDef*%
%ADD17R,2.250000X0.500000*%
%TD*%
%TA.AperFunction,SMDPad,CuDef*%
%ADD18R,4.000000X2.050000*%
%TD*%
%TA.AperFunction,SMDPad,CuDef*%
%ADD19R,3.500000X2.050000*%
%TD*%
%TA.AperFunction,ViaPad*%
%ADD20C,0.450000*%
%TD*%
%TA.AperFunction,Conductor*%
%ADD21C,0.293370*%
%TD*%
%TA.AperFunction,Conductor*%
%ADD22C,0.200000*%
%TD*%
G04 APERTURE END LIST*
D10*
%TO.P,X1,1*%
%TO.N,Net-(U2-Pad7)*%
X154178028Y-99568028D03*
%TO.P,X1,2*%
%TO.N,GND*%
X153329500Y-98719500D03*
%TO.P,X1,3*%
%TO.N,Net-(U2-Pad8)*%
X152480972Y-97870972D03*
%TD*%
D11*
%TO.P,S2,1,1*%
%TO.N,GND*%
X157480000Y-104716000D03*
%TO.P,S2,2,2*%
%TO.N,RST*%
X157480000Y-100516000D03*
%TD*%
D12*
%TO.P,LEDTX1,1,K*%
%TO.N,Net-(LEDTX1-Pad1)*%
X160248500Y-100076000D03*
%TO.P,LEDTX1,2,A*%
%TO.N,Net-(LEDTX1-Pad2)*%
X161823500Y-100076000D03*
%TD*%
D13*
%TO.P,U2,1,PD3*%
%TO.N,D3*%
X151493605Y-101640193D03*
%TO.P,U2,2,PD4*%
%TO.N,D4*%
X150927920Y-101074507D03*
%TO.P,U2,3,GND*%
%TO.N,GND*%
X150362234Y-100508822D03*
%TO.P,U2,4,VCC*%
%TO.N,+5V*%
X149796549Y-99943136D03*
%TO.P,U2,5,GND*%
%TO.N,GND*%
X149230864Y-99377451D03*
%TO.P,U2,6,VCC*%
%TO.N,+5V*%
X148665178Y-98811766D03*
%TO.P,U2,7,PB6*%
%TO.N,Net-(U2-Pad7)*%
X148099493Y-98246080D03*
%TO.P,U2,8,PB7*%
%TO.N,Net-(U2-Pad8)*%
X147533807Y-97680395D03*
D14*
%TO.P,U2,9,PD5*%
%TO.N,D5*%
X145582193Y-97680395D03*
%TO.P,U2,10,PD6*%
%TO.N,D6*%
X145016507Y-98246080D03*
%TO.P,U2,11,PD7*%
%TO.N,D7*%
X144450822Y-98811766D03*
%TO.P,U2,12,PB0*%
%TO.N,D8*%
X143885136Y-99377451D03*
%TO.P,U2,13,PB1*%
%TO.N,D9*%
X143319451Y-99943136D03*
%TO.P,U2,14,PB2*%
%TO.N,D10*%
X142753766Y-100508822D03*
%TO.P,U2,15,PB3*%
%TO.N,D11{slash}MOSI*%
X142188080Y-101074507D03*
%TO.P,U2,16,PB4*%
%TO.N,D12{slash}MISO*%
X141622395Y-101640193D03*
D13*
%TO.P,U2,17,PB5*%
%TO.N,D13{slash}SCK*%
X141622395Y-103591807D03*
%TO.P,U2,18,AVCC*%
%TO.N,+5V*%
X142188080Y-104157493D03*
%TO.P,U2,19,ADC6*%
%TO.N,A6*%
X142753766Y-104723178D03*
%TO.P,U2,20,AREF*%
%TO.N,AREF*%
X143319451Y-105288864D03*
%TO.P,U2,21,GND*%
%TO.N,GND*%
X143885136Y-105854549D03*
%TO.P,U2,22,ADC7*%
%TO.N,A7*%
X144450822Y-106420234D03*
%TO.P,U2,23,PC0*%
%TO.N,A0*%
X145016507Y-106985920D03*
%TO.P,U2,24,PC1*%
%TO.N,A1*%
X145582193Y-107551605D03*
D14*
%TO.P,U2,25,PC2*%
%TO.N,A2*%
X147533807Y-107551605D03*
%TO.P,U2,26,PC3*%
%TO.N,A3*%
X148099493Y-106985920D03*
%TO.P,U2,27,PC4*%
%TO.N,A4*%
X148665178Y-106420234D03*
%TO.P,U2,28,PC5*%
%TO.N,A5*%
X149230864Y-105854549D03*
%TO.P,U2,29,PC6/~{RESET}*%
%TO.N,RST*%
X149796549Y-105288864D03*
%TO.P,U2,30,PD0*%
%TO.N,RP1A1*%
X150362234Y-104723178D03*
%TO.P,U2,31,PD1*%
%TO.N,RP1B1*%
X150927920Y-104157493D03*
%TO.P,U2,32,PD2*%
%TO.N,D2*%
X151493605Y-103591807D03*
%TD*%
D15*
%TO.P,H3,1,1*%
%TO.N,D12{slash}MISO*%
X170683000Y-100091000D03*
D16*
%TO.P,H3,2,2*%
%TO.N,+5V*%
X173223000Y-100091000D03*
%TO.P,H3,3,3*%
%TO.N,D13{slash}SCK*%
X170683000Y-102631000D03*
%TO.P,H3,4,4*%
%TO.N,D11{slash}MOSI*%
X173223000Y-102631000D03*
%TO.P,H3,5,5*%
%TO.N,RST*%
X170683000Y-105171000D03*
%TO.P,H3,6,6*%
%TO.N,GND*%
X173223000Y-105171000D03*
%TD*%
D15*
%TO.P,H1,1,1*%
%TO.N,D1{slash}TX*%
X170683000Y-94996000D03*
D16*
%TO.P,H1,2,2*%
%TO.N,D0{slash}RX*%
X168143000Y-94996000D03*
%TO.P,H1,3,3*%
%TO.N,RST*%
X165603000Y-94996000D03*
%TO.P,H1,4,4*%
%TO.N,GND*%
X163063000Y-94996000D03*
%TO.P,H1,5,5*%
%TO.N,D2*%
X160523000Y-94996000D03*
%TO.P,H1,6,6*%
%TO.N,D3*%
X157983000Y-94996000D03*
%TO.P,H1,7,7*%
%TO.N,D4*%
X155443000Y-94996000D03*
%TO.P,H1,8,8*%
%TO.N,D5*%
X152903000Y-94996000D03*
%TO.P,H1,9,9*%
%TO.N,D6*%
X150363000Y-94996000D03*
%TO.P,H1,10,10*%
%TO.N,D7*%
X147823000Y-94996000D03*
%TO.P,H1,11,11*%
%TO.N,D8*%
X145283000Y-94996000D03*
%TO.P,H1,12,12*%
%TO.N,D9*%
X142743000Y-94996000D03*
%TO.P,H1,13,13*%
%TO.N,D10*%
X140203000Y-94996000D03*
%TO.P,H1,14,14*%
%TO.N,D11{slash}MOSI*%
X137663000Y-94996000D03*
%TO.P,H1,15,15*%
%TO.N,D12{slash}MISO*%
X135123000Y-94996000D03*
%TD*%
D15*
%TO.P,H2,1,1*%
%TO.N,D13{slash}SCK*%
X135133000Y-110236000D03*
D16*
%TO.P,H2,2,2*%
%TO.N,+3V3*%
X137673000Y-110236000D03*
%TO.P,H2,3,3*%
%TO.N,AREF*%
X140213000Y-110236000D03*
%TO.P,H2,4,4*%
%TO.N,A0*%
X142753000Y-110236000D03*
%TO.P,H2,5,5*%
%TO.N,A1*%
X145293000Y-110236000D03*
%TO.P,H2,6,6*%
%TO.N,A2*%
X147833000Y-110236000D03*
%TO.P,H2,7,7*%
%TO.N,A3*%
X150373000Y-110236000D03*
%TO.P,H2,8,8*%
%TO.N,A4*%
X152913000Y-110236000D03*
%TO.P,H2,9,9*%
%TO.N,A5*%
X155453000Y-110236000D03*
%TO.P,H2,10,10*%
%TO.N,A6*%
X157993000Y-110236000D03*
%TO.P,H2,11,11*%
%TO.N,A7*%
X160533000Y-110236000D03*
%TO.P,H2,12,12*%
%TO.N,+5V*%
X163073000Y-110236000D03*
%TO.P,H2,13,13*%
%TO.N,RST*%
X165613000Y-110236000D03*
%TO.P,H2,14,14*%
%TO.N,GND*%
X168153000Y-110236000D03*
%TO.P,H2,15,15*%
%TO.N,VCC*%
X170693000Y-110236000D03*
%TD*%
D12*
%TO.P,LEDPWR1,1,K*%
%TO.N,GND*%
X160248500Y-103632000D03*
%TO.P,LEDPWR1,2,A*%
%TO.N,RP1C2*%
X161823500Y-103632000D03*
%TD*%
D17*
%TO.P,USB2,1,VBUS*%
%TO.N,Net-(F1-Pad2)*%
X137942700Y-101016000D03*
%TO.P,USB2,2,D-*%
%TO.N,D-*%
X137942700Y-101816000D03*
%TO.P,USB2,3,D+*%
%TO.N,D+*%
X137942700Y-102616000D03*
%TO.P,USB2,4,ID*%
%TO.N,unconnected-(USB2-Pad4)*%
X137942700Y-103416000D03*
%TO.P,USB2,5,GND*%
%TO.N,GND*%
X137942700Y-104216000D03*
D18*
%TO.P,USB2,8,CH*%
X133717700Y-107541000D03*
D19*
%TO.P,USB2,9,CH*%
X137967700Y-107541000D03*
%TO.P,USB2,10,CH*%
X137967700Y-97691000D03*
D18*
%TO.P,USB2,11,CH*%
X133717700Y-97691000D03*
%TD*%
D12*
%TO.P,LEDBUILTIN1,1,K*%
%TO.N,GND*%
X160248500Y-105410000D03*
%TO.P,LEDBUILTIN1,2,A*%
%TO.N,RP2A2*%
X161823500Y-105410000D03*
%TD*%
%TO.P,LEDRX1,1,K*%
%TO.N,Net-(LEDRX1-Pad1)*%
X160248500Y-101854000D03*
%TO.P,LEDRX1,2,A*%
%TO.N,Net-(LEDRX1-Pad2)*%
X161823500Y-101854000D03*
%TD*%
D20*
%TO.N,VBUS*%
X137541000Y-104902000D03*
X161036000Y-100965000D03*
X140589000Y-103505000D03*
X144548889Y-103736111D03*
%TO.N,+5V*%
X150231422Y-107593786D03*
X146573688Y-107580730D03*
X149098000Y-100584000D03*
X142774618Y-103577396D03*
%TO.N,Net-(F1-Pad2)*%
X135041430Y-101416800D03*
%TO.N,D1{slash}TX*%
X145643000Y-108855005D03*
X156591000Y-98058503D03*
%TO.N,D0{slash}RX*%
X156591000Y-97409000D03*
X148243000Y-108836024D03*
%TO.N,GND*%
X168021000Y-99949000D03*
X136525000Y-104140000D03*
X133731000Y-106299000D03*
X137922000Y-106299000D03*
X136393198Y-101854000D03*
X146558000Y-97663000D03*
X151737500Y-107823000D03*
X160263043Y-106360497D03*
X135636000Y-99187000D03*
X141668185Y-97409000D03*
X150749000Y-99123185D03*
X157958978Y-105981185D03*
X166370000Y-102743000D03*
X143101500Y-108204000D03*
X159512000Y-103632000D03*
X148334558Y-101155185D03*
X137985815Y-99060000D03*
X145382262Y-104345445D03*
X151892000Y-106426000D03*
X158565000Y-102229152D03*
X143037819Y-97208904D03*
X153469556Y-99158988D03*
X158849500Y-107823000D03*
X133731000Y-96393000D03*
X155175000Y-107080000D03*
%TO.N,RST*%
X157480000Y-101092000D03*
X156136299Y-102544098D03*
X160274000Y-107188000D03*
%TO.N,D6*%
X144272000Y-97536000D03*
%TO.N,D11{slash}MOSI*%
X141478000Y-100330000D03*
X142881917Y-101768344D03*
%TO.N,D12{slash}MISO*%
X140843000Y-100965000D03*
X142303500Y-102298500D03*
%TO.N,D13{slash}SCK*%
X140843000Y-104394000D03*
X155194000Y-105487815D03*
%TO.N,+3V3*%
X141605000Y-108204000D03*
%TO.N,AREF*%
X146864185Y-104345445D03*
%TO.N,A3*%
X148971000Y-107693154D03*
%TO.N,A4*%
X149431882Y-107235506D03*
%TO.N,A5*%
X153289000Y-108264839D03*
%TO.N,A6*%
X141469935Y-107512772D03*
%TO.N,A7*%
X142952550Y-107540114D03*
%TO.N,RP2A2*%
X156111219Y-103854050D03*
X153289000Y-105981185D03*
X163377684Y-104322684D03*
%TO.N,RP1C2*%
X163385185Y-101346000D03*
X160035500Y-96466698D03*
X162204555Y-103129316D03*
%TO.N,Net-(LEDRX1-Pad1)*%
X145255155Y-101010663D03*
X147828000Y-101600000D03*
X148483190Y-103022588D03*
X160020000Y-101382702D03*
%TO.N,Net-(LEDRX1-Pad2)*%
X161783128Y-102474128D03*
X155321000Y-104203815D03*
X156654815Y-106122861D03*
%TO.N,Net-(LEDTX1-Pad1)*%
X144446020Y-101012020D03*
X161714502Y-99123185D03*
%TO.N,Net-(LEDTX1-Pad2)*%
X160773628Y-102675850D03*
X158916800Y-103372022D03*
X162242815Y-100965000D03*
%TO.N,RP1A1*%
X149690257Y-104066459D03*
%TO.N,RP1B1*%
X150241000Y-103505000D03*
%TO.N,Net-(C7-Pad1)*%
X157988000Y-103378000D03*
X147828000Y-104345445D03*
X162715568Y-99123185D03*
X152781000Y-104162992D03*
%TO.N,D+*%
X140589000Y-102566000D03*
%TO.N,D-*%
X140589000Y-101866000D03*
%TD*%
D21*
%TO.N,VBUS*%
X139192000Y-104902000D02*
X140589000Y-103505000D01*
X137541000Y-104902000D02*
X139192000Y-104902000D01*
%TO.N,+5V*%
X142188080Y-104157493D02*
X142194521Y-104157493D01*
X147955000Y-99949000D02*
X147955000Y-99521944D01*
X147955000Y-99521944D02*
X148665178Y-98811766D01*
X149098000Y-100584000D02*
X148590000Y-100584000D01*
X142194521Y-104157493D02*
X142774618Y-103577396D01*
X149738864Y-99943136D02*
X149098000Y-100584000D01*
X148590000Y-100584000D02*
X147955000Y-99949000D01*
X149796549Y-99943136D02*
X149738864Y-99943136D01*
%TO.N,Net-(F1-Pad2)*%
X135849651Y-101416800D02*
X135041430Y-101416800D01*
X136250451Y-101016000D02*
X135849651Y-101416800D01*
X137942700Y-101016000D02*
X136250451Y-101016000D01*
%TO.N,D1{slash}TX*%
X161028684Y-111432685D02*
X161876315Y-110585054D01*
X161876315Y-108045170D02*
X169486315Y-100435170D01*
X161876315Y-110585054D02*
X161876315Y-108045170D01*
X146636315Y-109848320D02*
X146636315Y-110731684D01*
X146636315Y-110731684D02*
X147337316Y-111432685D01*
X169486315Y-100435170D02*
X169486315Y-96192685D01*
X147337316Y-111432685D02*
X161028684Y-111432685D01*
X145643000Y-108855005D02*
X146636315Y-109848320D01*
X169486315Y-96192685D02*
X170683000Y-94996000D01*
%TO.N,D0{slash}RX*%
X165798315Y-100040685D02*
X166369157Y-100040685D01*
X165798315Y-102474206D02*
X165798315Y-102709831D01*
X166098315Y-98240685D02*
X165227473Y-98240685D01*
X165798315Y-98840685D02*
X166369157Y-98840685D01*
X166369157Y-99440685D02*
X165798315Y-99440685D01*
X166098315Y-97640685D02*
X166369157Y-97640685D01*
X165798315Y-100640685D02*
X165227473Y-100640685D01*
X165798315Y-102709831D02*
X159672122Y-108836024D01*
X165227473Y-101240685D02*
X165498315Y-101240685D01*
X166369157Y-100640685D02*
X165798315Y-100640685D01*
X165227473Y-100040685D02*
X165798315Y-100040685D01*
X159672122Y-108836024D02*
X148243000Y-108836024D01*
X168143000Y-94996000D02*
X165798315Y-97340685D01*
X165798315Y-99440685D02*
X165227473Y-99440685D01*
X165798315Y-101540685D02*
X165798315Y-102474206D01*
X165227473Y-98840685D02*
X165798315Y-98840685D01*
X166369157Y-98240685D02*
X166098315Y-98240685D01*
X166369157Y-98240657D02*
G75*
G03*
X166669157Y-97940685I43J299957D01*
G01*
X164927485Y-98540685D02*
G75*
G02*
X165227473Y-98240685I300015J-15D01*
G01*
X166669215Y-100340685D02*
G75*
G03*
X166369157Y-100040685I-300015J-15D01*
G01*
X165798315Y-101540685D02*
G75*
G03*
X165498315Y-101240685I-300015J-15D01*
G01*
X166369157Y-99440657D02*
G75*
G03*
X166669157Y-99140685I43J299957D01*
G01*
X164927485Y-100940685D02*
G75*
G02*
X165227473Y-100640685I300015J-15D01*
G01*
X165227473Y-100040727D02*
G75*
G02*
X164927473Y-99740685I27J300027D01*
G01*
X166369157Y-100640657D02*
G75*
G03*
X166669157Y-100340685I43J299957D01*
G01*
X164927485Y-99740685D02*
G75*
G02*
X165227473Y-99440685I300015J-15D01*
G01*
X166098315Y-97640685D02*
G75*
G02*
X165798315Y-97340685I-15J299985D01*
G01*
X165227473Y-98840727D02*
G75*
G02*
X164927473Y-98540685I27J300027D01*
G01*
X166669215Y-99140685D02*
G75*
G03*
X166369157Y-98840685I-300015J-15D01*
G01*
X166669215Y-97940685D02*
G75*
G03*
X166369157Y-97640685I-300015J-15D01*
G01*
X165227473Y-101240727D02*
G75*
G02*
X164927473Y-100940685I27J300027D01*
G01*
%TO.N,GND*%
X150749000Y-99123185D02*
X150462126Y-98836311D01*
X137967700Y-97691000D02*
X137967700Y-99041885D01*
X133717700Y-96406300D02*
X133731000Y-96393000D01*
X143885136Y-105842571D02*
X145382262Y-104345445D01*
X153329500Y-99018932D02*
X153329500Y-98719500D01*
X160248500Y-105410000D02*
X160248500Y-106345954D01*
X160248500Y-106345954D02*
X160263043Y-106360497D01*
X149715871Y-101155185D02*
X150362234Y-100508822D01*
X157480000Y-104716000D02*
X157480000Y-105502207D01*
X160248500Y-103632000D02*
X159512000Y-103632000D01*
X133717700Y-97691000D02*
X133717700Y-96406300D01*
X137967700Y-106344700D02*
X137922000Y-106299000D01*
X137967700Y-99041885D02*
X137985815Y-99060000D01*
X149772004Y-98836311D02*
X149230864Y-99377451D01*
X136601000Y-104216000D02*
X136525000Y-104140000D01*
X133717700Y-107541000D02*
X133717700Y-106312300D01*
X153469556Y-99158988D02*
X153329500Y-99018932D01*
X133717700Y-106312300D02*
X133731000Y-106299000D01*
X157480000Y-105502207D02*
X157958978Y-105981185D01*
X150462126Y-98836311D02*
X149772004Y-98836311D01*
X137942700Y-104216000D02*
X136601000Y-104216000D01*
X148334558Y-101155185D02*
X149715871Y-101155185D01*
X143885136Y-105854549D02*
X143885136Y-105842571D01*
X137967700Y-107541000D02*
X137967700Y-106344700D01*
%TO.N,RST*%
X149796549Y-105288864D02*
X150362000Y-105854315D01*
X157480000Y-101092000D02*
X157480000Y-100516000D01*
X152336315Y-105600685D02*
X152336315Y-105854315D01*
X172212000Y-103642000D02*
X172026315Y-103456315D01*
X156136299Y-102544098D02*
X156053464Y-102626933D01*
X172026315Y-103456315D02*
X172026315Y-99595316D01*
X170678000Y-105171000D02*
X170683000Y-105171000D01*
X172212000Y-94131630D02*
X171679370Y-93599000D01*
X154133685Y-107651685D02*
X158032315Y-107651685D01*
X170683000Y-105171000D02*
X172212000Y-103642000D01*
X156053464Y-102626933D02*
X155310067Y-102626933D01*
X172026315Y-99595316D02*
X172212000Y-99409631D01*
X165613000Y-110236000D02*
X170678000Y-105171000D01*
X167000000Y-93599000D02*
X165603000Y-94996000D01*
X158496000Y-107188000D02*
X160274000Y-107188000D01*
X158032315Y-107651685D02*
X158496000Y-107188000D01*
X172212000Y-99409631D02*
X172212000Y-94131630D01*
X153035000Y-106553000D02*
X154133685Y-107651685D01*
X150362000Y-105854315D02*
X152019000Y-105854315D01*
X155310067Y-102626933D02*
X152336315Y-105600685D01*
X152019000Y-105854315D02*
X152336315Y-105854315D01*
X152336315Y-105854315D02*
X153035000Y-106553000D01*
X171679370Y-93599000D02*
X167000000Y-93599000D01*
%TO.N,D2*%
X159464315Y-96054685D02*
X160523000Y-94996000D01*
X158425685Y-101663685D02*
X159464315Y-100625055D01*
X151493605Y-103268395D02*
X152628437Y-102133563D01*
X155739167Y-102133563D02*
X156209045Y-101663685D01*
X151493605Y-103591807D02*
X151493605Y-103268395D01*
X159464315Y-100625055D02*
X159464315Y-96054685D01*
X152628437Y-102133563D02*
X155739167Y-102133563D01*
X156209045Y-101663685D02*
X158425685Y-101663685D01*
%TO.N,D3*%
X157983000Y-97474988D02*
X157983000Y-94996000D01*
X156083000Y-99374988D02*
X157983000Y-97474988D01*
X151493605Y-101640193D02*
X155534807Y-101640193D01*
X156083000Y-101092000D02*
X156083000Y-99374988D01*
X155534807Y-101640193D02*
X156083000Y-101092000D01*
%TO.N,D4*%
X153791300Y-100727886D02*
X153808186Y-100711000D01*
X150927920Y-101074507D02*
X151469059Y-100533368D01*
X152186070Y-100711000D02*
X153487210Y-100711000D01*
X153504096Y-100727886D02*
X153791300Y-100727886D01*
X153487210Y-100711000D02*
X153504096Y-100727886D01*
X153808186Y-100711000D02*
X155067000Y-100711000D01*
X151469059Y-100533368D02*
X152008438Y-100533368D01*
X155448000Y-100330000D02*
X155448000Y-95001000D01*
X155067000Y-100711000D02*
X155448000Y-100330000D01*
X152008438Y-100533368D02*
X152186070Y-100711000D01*
X155448000Y-95001000D02*
X155443000Y-94996000D01*
%TO.N,D5*%
X145582193Y-97680395D02*
X146742588Y-96520000D01*
X152146000Y-96520000D02*
X152903000Y-95763000D01*
X152903000Y-95763000D02*
X152903000Y-94996000D01*
X146742588Y-96520000D02*
X152146000Y-96520000D01*
%TO.N,D6*%
X145016507Y-98246080D02*
X144982080Y-98246080D01*
X144982080Y-98246080D02*
X144272000Y-97536000D01*
%TO.N,D7*%
X143637000Y-97997944D02*
X144450822Y-98811766D01*
X144218315Y-96192685D02*
X143637000Y-96774000D01*
X147193000Y-94996000D02*
X145996315Y-96192685D01*
X143637000Y-96774000D02*
X143637000Y-97997944D01*
X147823000Y-94996000D02*
X147193000Y-94996000D01*
X145996315Y-96192685D02*
X144218315Y-96192685D01*
%TO.N,D8*%
X143939685Y-95491684D02*
X143238684Y-96192685D01*
X145283000Y-94996000D02*
X144399000Y-94996000D01*
X143238684Y-96192685D02*
X143202315Y-96192685D01*
X143939685Y-95455315D02*
X143939685Y-95491684D01*
X142240000Y-97790000D02*
X143827451Y-99377451D01*
X143202315Y-96192685D02*
X142240000Y-97155000D01*
X143827451Y-99377451D02*
X143885136Y-99377451D01*
X142240000Y-97155000D02*
X142240000Y-97790000D01*
X144399000Y-94996000D02*
X143939685Y-95455315D01*
%TO.N,D9*%
X141097000Y-96139000D02*
X141097000Y-97720685D01*
X142743000Y-94996000D02*
X142240000Y-94996000D01*
X141097000Y-97720685D02*
X143319451Y-99943136D01*
X142240000Y-94996000D02*
X141097000Y-96139000D01*
%TO.N,D10*%
X140203000Y-96769000D02*
X140203000Y-97958056D01*
X140203000Y-97958056D02*
X140379775Y-98134831D01*
X141228302Y-98983358D02*
X142753766Y-100508822D01*
X140379774Y-98559096D02*
X140379775Y-98559095D01*
X141228303Y-98983359D02*
X141228302Y-98983358D01*
X139871228Y-99916169D02*
X139871227Y-99916170D01*
X140203000Y-94996000D02*
X140203000Y-95325000D01*
X140203000Y-96525000D02*
X140203000Y-96769000D01*
X140379775Y-98559095D02*
X139446963Y-99491906D01*
X139446964Y-99916171D02*
X139446963Y-99916170D01*
X139903000Y-95625000D02*
X138853000Y-95625000D01*
X139871227Y-99916170D02*
X140804038Y-98983358D01*
X138853000Y-96225000D02*
X139903000Y-96225000D01*
X138853000Y-96225000D02*
G75*
G02*
X138553000Y-95925000I0J300000D01*
G01*
X139903000Y-95625000D02*
G75*
G03*
X140203000Y-95325000I0J300000D01*
G01*
X139871233Y-99916174D02*
G75*
G02*
X139446963Y-99916170I-212133J212174D01*
G01*
X140203000Y-96525000D02*
G75*
G03*
X139903000Y-96225000I-300000J0D01*
G01*
X141228333Y-98983329D02*
G75*
G03*
X140804038Y-98983358I-212133J-212171D01*
G01*
X138553000Y-95925000D02*
G75*
G02*
X138853000Y-95625000I300000J0D01*
G01*
X139447002Y-99916133D02*
G75*
G02*
X139446963Y-99491906I212098J212133D01*
G01*
X140379811Y-98559133D02*
G75*
G03*
X140379775Y-98134831I-212211J212133D01*
G01*
%TO.N,D11{slash}MOSI*%
X141478000Y-100364427D02*
X142188080Y-101074507D01*
X142881917Y-101768344D02*
X142188080Y-101074507D01*
X141478000Y-100330000D02*
X141478000Y-100364427D01*
%TO.N,D12{slash}MISO*%
X140843000Y-100965000D02*
X140947202Y-100965000D01*
X142303500Y-102298500D02*
X141645193Y-101640193D01*
X141645193Y-101640193D02*
X141622395Y-101640193D01*
X140947202Y-100965000D02*
X141622395Y-101640193D01*
%TO.N,D13{slash}SCK*%
X140843000Y-104394000D02*
X140843000Y-104371202D01*
X140843000Y-104371202D02*
X141622395Y-103591807D01*
%TO.N,AREF*%
X145074426Y-103164426D02*
X144312089Y-103164426D01*
X140716000Y-110236000D02*
X140213000Y-110236000D01*
X143860591Y-103615924D02*
X143860591Y-104747724D01*
X142176685Y-106431630D02*
X142176685Y-108775315D01*
X143860591Y-104747724D02*
X143319451Y-105288864D01*
X144312089Y-103164426D02*
X143860591Y-103615924D01*
X146255445Y-104345445D02*
X145074426Y-103164426D01*
X142176685Y-108775315D02*
X140716000Y-110236000D01*
X146864185Y-104345445D02*
X146255445Y-104345445D01*
X143319451Y-105288864D02*
X142176685Y-106431630D01*
%TO.N,A0*%
X145016507Y-106985920D02*
X144145000Y-107857427D01*
X144145000Y-108844000D02*
X142753000Y-110236000D01*
X144145000Y-107857427D02*
X144145000Y-108844000D01*
%TO.N,A1*%
X145582193Y-107551605D02*
X144907000Y-108226798D01*
X144907000Y-109850000D02*
X145293000Y-110236000D01*
X144907000Y-108226798D02*
X144907000Y-109850000D01*
%TO.N,A2*%
X147533807Y-107551605D02*
X147533807Y-109936807D01*
X147533807Y-109936807D02*
X147833000Y-110236000D01*
%TO.N,A3*%
X148099493Y-106985920D02*
X148263766Y-106985920D01*
X148263766Y-106985920D02*
X148971000Y-107693154D01*
%TO.N,A4*%
X148665178Y-106468802D02*
X149431882Y-107235506D01*
X148665178Y-106420234D02*
X148665178Y-106468802D01*
%TO.N,A5*%
X150437315Y-107061000D02*
X152075529Y-107061000D01*
X153279368Y-108264839D02*
X153289000Y-108264839D01*
X149230864Y-105854549D02*
X150437315Y-107061000D01*
X152075529Y-107061000D02*
X153279368Y-108264839D01*
%TO.N,A6*%
X141469935Y-107512772D02*
X141469935Y-106007009D01*
X141469935Y-106007009D02*
X142753766Y-104723178D01*
%TO.N,A7*%
X143330942Y-107540114D02*
X142952550Y-107540114D01*
X144450822Y-106420234D02*
X143330942Y-107540114D01*
%TO.N,RP2A2*%
X162290368Y-105410000D02*
X163377684Y-104322684D01*
X153289000Y-105410000D02*
X155066870Y-103632130D01*
X161823500Y-105410000D02*
X162290368Y-105410000D01*
X155066870Y-103632130D02*
X155889299Y-103632130D01*
X153289000Y-105981185D02*
X153289000Y-105410000D01*
X155889299Y-103632130D02*
X156111219Y-103854050D01*
%TO.N,RP1C2*%
X161823500Y-103632000D02*
X161823500Y-103510371D01*
X160867566Y-96466698D02*
X160035500Y-96466698D01*
X163385185Y-101346000D02*
X163385185Y-98984317D01*
X163385185Y-98984317D02*
X160867566Y-96466698D01*
X161823500Y-103510371D02*
X162204555Y-103129316D01*
%TO.N,Net-(LEDRX1-Pad1)*%
X160248500Y-101611202D02*
X160020000Y-101382702D01*
X147828000Y-102367398D02*
X147828000Y-101600000D01*
X148483190Y-103022588D02*
X147828000Y-102367398D01*
X160248500Y-101854000D02*
X160248500Y-101611202D01*
%TO.N,Net-(LEDRX1-Pad2)*%
X155956000Y-105424046D02*
X155956000Y-104838815D01*
X155956000Y-104838815D02*
X155321000Y-104203815D01*
X156654815Y-106122861D02*
X155956000Y-105424046D01*
X161823500Y-102433756D02*
X161783128Y-102474128D01*
X161823500Y-101854000D02*
X161823500Y-102433756D01*
%TO.N,Net-(LEDTX1-Pad1)*%
X161201315Y-99123185D02*
X161714502Y-99123185D01*
X160248500Y-100076000D02*
X161201315Y-99123185D01*
%TO.N,Net-(LEDTX1-Pad2)*%
X160773628Y-102675850D02*
X159579150Y-102675850D01*
X159579150Y-102675850D02*
X158844865Y-103410135D01*
X161823500Y-100545685D02*
X162242815Y-100965000D01*
X161823500Y-100076000D02*
X161823500Y-100545685D01*
%TO.N,RP1A1*%
X150346976Y-104723178D02*
X149690257Y-104066459D01*
X150362234Y-104723178D02*
X150346976Y-104723178D01*
%TO.N,Net-(U2-Pad7)*%
X150114000Y-97536000D02*
X148809573Y-97536000D01*
X154178028Y-99568028D02*
X153543056Y-100203000D01*
X148809573Y-97536000D02*
X148099493Y-98246080D01*
X153543056Y-100203000D02*
X152781000Y-100203000D01*
X152781000Y-100203000D02*
X150114000Y-97536000D01*
%TO.N,Net-(U2-Pad8)*%
X151638000Y-97028000D02*
X152480972Y-97870972D01*
X148200832Y-97013370D02*
X151638000Y-97013370D01*
X147533807Y-97680395D02*
X148200832Y-97013370D01*
X151638000Y-97013370D02*
X151638000Y-97028000D01*
%TO.N,RP1B1*%
X150927920Y-104157493D02*
X150893493Y-104157493D01*
X150893493Y-104157493D02*
X150241000Y-103505000D01*
%TO.N,Net-(C7-Pad1)*%
X162365685Y-104588315D02*
X159325315Y-104588315D01*
X162814000Y-104140000D02*
X162365685Y-104588315D01*
X162814000Y-100557010D02*
X162814000Y-104140000D01*
X162715568Y-99123185D02*
X162715568Y-100458578D01*
X158115000Y-103378000D02*
X157988000Y-103378000D01*
X162715568Y-100458578D02*
X162814000Y-100557010D01*
X159325315Y-104588315D02*
X158115000Y-103378000D01*
D22*
%TO.N,D+*%
X137942700Y-102616000D02*
X139630201Y-102616000D01*
X139805201Y-102441000D02*
X140464001Y-102441001D01*
X139630201Y-102616000D02*
X139805201Y-102441000D01*
X140464001Y-102441001D02*
X140589000Y-102566000D01*
%TO.N,D-*%
X137942700Y-101816000D02*
X139630201Y-101816000D01*
X139805201Y-101991000D02*
X140464001Y-101990999D01*
X140464001Y-101990999D02*
X140589000Y-101866000D01*
X139630201Y-101816000D02*
X139805201Y-101991000D01*
%TD*%
M02*
